<?xml version="1.0" encoding="utf-8"?>
<!-- Generator: Adobe Illustrator 24.0.0, SVG Export Plug-In . SVG Version: 6.00 Build 0)  -->
<svg version="1.1" id="Capa_1" xmlns="http://www.w3.org/2000/svg" xmlns:xlink="http://www.w3.org/1999/xlink" x="0px" y="0px"
	 viewBox="0 0 254.6 111.3" style="enable-background:new 0 0 254.6 111.3;" xml:space="preserve">
<style type="text/css">
	.st0{fill:#FFFFFF;}
</style>
<g>
	<path class="st0" d="M1.4,50.7c6.8,0,13.6,0,20.3,0C15.8,49,10.9,45.8,7.1,41c-3.8-4.8-5.7-10.3-5.7-16.5c3.7,0,7.3,0,11,0
		c0.4,7.1,3.9,12,10.4,14.9c0-5,0-9.9,0-14.9c3.7,0,7.3,0,11.1,0c0,4.9,0,9.8,0,14.9c6.6-2.9,10.1-7.8,10.4-14.9c3.6,0,7.3,0,11,0
		c0,6.2-1.9,11.7-5.7,16.5c-3.8,4.8-8.6,8.1-14.6,9.7c6.7,0,13.5,0,20.2,0c0,3.7,0,7.3,0,11c-6.7,0-13.4,0-20,0
		c7.6,2.1,13.2,6.8,17,13.6c2.2,3.9,3.1,8.1,3.1,12.5c-3.7,0-7.3,0-11,0c0-4.8-1.9-8.8-5.4-11.9c-1.4-1.3-3-2.2-4.9-2.9
		c0,5,0,9.9,0,14.8c-3.7,0-7.3,0-11,0c0-4.9,0-9.8,0-14.8c-3.2,1.2-5.6,3.1-7.5,5.8c-1.9,2.7-2.8,5.7-2.9,9c-3.7,0-7.3,0-11,0
		c0-6.1,1.8-11.6,5.6-16.4c3.8-4.8,8.6-8.1,14.5-9.7c-3.3,0-6.7,0-10,0c-3.4,0-6.7,0-10.1,0C1.4,58,1.4,54.3,1.4,50.7z"/>
	<path class="st0" d="M241.6,66.8c0-14.4,0-28.6,0-42.8c3.9,0,7.8,0,11.7,0c0,21.1,0,42.2,0,63.3c-0.2,0-0.3,0-0.5,0
		c-2.9,0-5.8,0-8.7,0c-0.4,0-0.6-0.1-0.8-0.4C232.7,74,222.2,61,211.6,48.1c-0.9-1.1-1.7-2.1-2.6-3.2c-0.1-0.1-0.2-0.3-0.4-0.5
		c0,14.3,0,28.5,0,42.8c-3.9,0-7.8,0-11.7,0c0-21.1,0-42.2,0-63.3c0.2,0,0.3,0,0.5,0c2.9,0,5.8,0,8.7,0c0.4,0,0.6,0.1,0.8,0.4
		c5.2,6.4,10.4,12.8,15.6,19.2c6.2,7.6,12.4,15.2,18.5,22.7C241.2,66.4,241.4,66.5,241.6,66.8z"/>
	<path class="st0" d="M79.5,23.9c3.9,0,7.8,0,11.8,0c0,0.2,0,0.4,0,0.6c0,11.7,0,23.5,0,35.2c0,3,0.4,6,1.4,8.9
		c1.9,5.1,5.5,8,10.8,8.9c3.2,0.5,6.4,0.5,9.5-0.4c4.6-1.3,7.5-4.3,9-8.7c1-2.9,1.3-5.9,1.3-8.9c0-11.7,0-23.3,0-35
		c0-0.2,0-0.4,0-0.6c3.9,0,7.7,0,11.6,0c0,0.2,0,0.3,0,0.5c0,12.1,0,24.1,0,36.2c0,4.6-0.7,9-2.6,13.2c-3,6.7-8.1,11-15.1,13
		c-4.2,1.2-8.5,1.5-12.9,1.2c-4.3-0.3-8.4-1.2-12.2-3.2c-5.9-3.2-9.5-8.1-11.4-14.4c-0.9-3-1.3-6.1-1.3-9.2c0-12.3,0-24.5,0-36.8
		C79.5,24.3,79.5,24.1,79.5,23.9z"/>
	<path class="st0" d="M159.8,33.9c-7,0-14,0-21,0c0-3.3,0-6.6,0-9.9c17.9,0,35.8,0,53.7,0c0,3.3,0,6.6,0,9.9c-7,0-13.9,0-21,0
		c0,17.8,0,35.6,0,53.4c-4,0-7.8,0-11.8,0C159.8,69.5,159.8,51.7,159.8,33.9z"/>
	<path class="st0" d="M68.7,23c0.4,0,0.7,0,1.1,0c0,21.8,0,43.5,0,65.3c-0.3,0-0.7,0-1.1,0C68.7,66.5,68.7,44.8,68.7,23z"/>
</g>
</svg>
