<?xml version="1.0" encoding="utf-8"?>
<!-- Generator: Adobe Illustrator 24.0.0, SVG Export Plug-In . SVG Version: 6.00 Build 0)  -->
<svg version="1.1" id="Capa_1" xmlns="http://www.w3.org/2000/svg" xmlns:xlink="http://www.w3.org/1999/xlink" x="0px" y="0px"
	 viewBox="0 0 254.6 111.3" style="enable-background:new 0 0 254.6 111.3;" xml:space="preserve">
<style type="text/css">
	.st0{fill:#FFFFFF;}
</style>
<g>
	<g>
		<g>
			<path class="st0" d="M14,26.7l-2.4,8.2c-0.3,1.2-0.5,2-0.5,2.5c0,0.7,0.2,1.2,0.7,1.5c0.4,0.3,1.4,0.5,3,0.6l-0.3,0.8H0l0.2-0.8
				c1.2,0,2.1-0.1,2.6-0.4s0.9-0.6,1.3-1.1c0.2-0.3,0.6-1.4,1.1-3.1l5.5-18.8c0.4-1.2,0.6-2.1,0.6-2.7s-0.2-1-0.7-1.4
				c-0.5-0.4-1.4-0.6-2.6-0.6l0.2-0.8h11.7c3.2,0,5.5,0.4,6.9,1.2c2.2,1.3,3.3,3.2,3.3,5.8c0,2.5-1.1,4.6-3.3,6.5
				c-2.2,1.9-5.1,2.8-8.8,2.8C16.9,27.1,15.6,26.9,14,26.7z M14.4,25c0.9,0.1,1.7,0.2,2.4,0.2c2,0,3.6-0.9,4.7-2.7
				c1.1-1.8,1.7-3.7,1.7-5.7c0-1.4-0.4-2.4-1.1-3.1c-0.7-0.7-1.8-1.1-3.1-1.1c-0.3,0-0.6,0-1,0L14.4,25z"/>
			<path class="st0" d="M41.4,25.9l-2.6,9c-0.4,1.3-0.6,2.2-0.6,2.8c0,0.6,0.2,1,0.7,1.3c0.5,0.3,1.4,0.5,2.8,0.5l-0.3,0.8H27.2
				l0.3-0.8c1.4,0,2.5-0.3,3.1-0.8c0.7-0.6,1.3-1.8,1.8-3.7l5.5-19c0.3-1.1,0.5-1.9,0.5-2.5c0-0.6-0.2-1-0.6-1.3
				c-0.4-0.3-1.3-0.5-2.6-0.6l0.2-0.8h12.2c3.5,0,6,0.6,7.4,1.8c1.4,1.2,2.1,2.8,2.1,4.7c0,2-0.8,3.8-2.5,5.5c-1,1-2.9,1.9-5.6,2.6
				l2.7,9c0.7,2.4,1.3,3.8,1.9,4.3c0.5,0.5,1.4,0.8,2.6,0.8v0.8h-9.2l-4.2-14.4l-0.7,0C42,25.9,41.7,25.9,41.4,25.9z M41.7,24.6
				c0.5,0,0.9,0,1.3,0c2.1,0,3.9-0.7,5.2-2.2c1.4-1.5,2-3.4,2-5.7c0-1.4-0.4-2.5-1.1-3.2s-1.7-1.1-2.9-1.1c-0.3,0-0.6,0-1,0
				L41.7,24.6z"/>
			<path class="st0" d="M70.9,41c-2.4,0-4.3-0.5-5.8-1.5c-1.5-1-2.6-2.3-3.3-4c-0.7-1.7-1.1-3.3-1.1-4.9c0-3.2,0.9-6.5,2.8-9.8
				c1.8-3.3,4.3-5.9,7.5-7.9c3.1-2,6.2-3,9.3-3c1.8,0,3.5,0.5,5.1,1.4c1.6,0.9,2.9,2.2,3.7,3.8c0.9,1.6,1.3,3.2,1.3,4.9
				c0,3.7-1.2,7.4-3.5,11.1c-2.3,3.7-5,6.4-7.9,8C76.8,40.4,74.1,41,70.9,41z M79.5,11.8c-1.1,0-2.1,0.2-2.9,0.6
				c-0.8,0.4-1.6,1.1-2.5,2.1s-1.8,2.4-2.7,4.2c-0.9,1.8-1.7,4.3-2.5,7.4c-0.8,3.1-1.2,5.7-1.2,7.8c0,1.8,0.4,3.1,1.2,4
				c0.8,0.9,1.8,1.4,3,1.4c1.6,0,3-0.5,4.1-1.6c2.2-2.1,4-5.2,5.4-9.3c1.4-4.1,2.1-7.7,2.1-10.9c0-2-0.4-3.4-1.1-4.3
				C81.6,12.3,80.6,11.8,79.5,11.8z"/>
		</g>
		<g>
			<path class="st0" d="M127.8,10.1l-2.5,10h-0.7c-0.2-1.6-0.4-2.8-0.8-3.8c-0.6-1.4-1.4-2.4-2.4-3.2c-1-0.7-2.1-1.1-3.3-1.1
				c-1.1,0-2.1,0.4-3,1.3c-0.8,0.9-1.3,1.8-1.3,2.9c0,1.1,0.3,2.1,0.9,3.2c0.6,1,2,2.6,4.2,4.7c1.8,1.7,2.9,3.1,3.5,4.3
				c0.6,1.2,0.9,2.5,0.9,3.9c0,1.6-0.4,3-1.3,4.4c-0.8,1.3-2.1,2.4-3.7,3.1c-1.6,0.7-3.4,1.1-5.5,1.1c-1.2,0-2.8-0.2-4.7-0.6
				c-1.9-0.4-3.2-0.6-3.8-0.6c-0.5,0-0.9,0.1-1.3,0.2c-0.4,0.2-0.9,0.4-1.5,0.9h-0.8l2.6-11.3h0.8c0.2,2,0.6,3.7,1.2,5
				c0.6,1.4,1.5,2.5,2.6,3.2c1.1,0.8,2.4,1.2,3.9,1.2c1.4,0,2.6-0.5,3.6-1.4c1-1,1.4-2.1,1.4-3.3c0-1.1-0.3-2.1-0.8-3.1
				c-0.5-1-1.8-2.5-3.7-4.4c-1.9-1.9-3.3-3.6-4-5.1c-0.5-1.1-0.8-2.3-0.8-3.6c0-2.2,0.9-4.1,2.6-5.7s4-2.4,6.8-2.4
				c1.3,0,2.9,0.3,5,0.8c1.2,0.3,2.1,0.5,2.5,0.5c0.4,0,0.8-0.1,1.1-0.3c0.3-0.2,0.7-0.5,1.2-1.1H127.8z"/>
			<path class="st0" d="M139.1,41c-2.4,0-4.3-0.5-5.8-1.5c-1.5-1-2.6-2.3-3.3-4c-0.7-1.7-1.1-3.3-1.1-4.9c0-3.2,0.9-6.5,2.8-9.8
				c1.8-3.3,4.3-5.9,7.5-7.9c3.1-2,6.2-3,9.3-3c1.8,0,3.5,0.5,5.1,1.4c1.6,0.9,2.9,2.2,3.7,3.8c0.9,1.6,1.3,3.2,1.3,4.9
				c0,3.7-1.2,7.4-3.5,11.1c-2.3,3.7-5,6.4-7.9,8C145,40.4,142.3,41,139.1,41z M147.7,11.8c-1.1,0-2.1,0.2-2.9,0.6
				c-0.8,0.4-1.6,1.1-2.5,2.1s-1.8,2.4-2.7,4.2c-0.9,1.8-1.7,4.3-2.5,7.4c-0.8,3.1-1.2,5.7-1.2,7.8c0,1.8,0.4,3.1,1.2,4
				c0.8,0.9,1.8,1.4,3,1.4c1.6,0,3-0.5,4.1-1.6c2.2-2.1,4-5.2,5.4-9.3c1.4-4.1,2.1-7.7,2.1-10.9c0-2-0.4-3.4-1.1-4.3
				C149.8,12.3,148.8,11.8,147.7,11.8z"/>
			<path class="st0" d="M184.9,10.7h10l-0.2,0.8c-1.1,0.1-2,0.4-2.7,0.8c-1,0.7-1.8,2-2.2,3.7l-3.9,13.6c-1.2,4.2-2.9,7.2-5,8.9
				c-2.1,1.7-4.8,2.5-8,2.5c-1.8,0-3.4-0.3-4.8-0.8s-2.4-1.1-3.1-1.8s-1.2-1.5-1.5-2.4c-0.3-1-0.5-1.8-0.5-2.4c0-1,0.3-2.6,0.9-4.6
				l3.7-12.9c0.3-1.2,0.5-2,0.5-2.6c0-0.6-0.2-1-0.6-1.3c-0.4-0.3-1.4-0.5-2.9-0.6l0.2-0.8h14.7l-0.3,0.8c-1.4,0-2.5,0.3-3.3,0.9
				c-0.7,0.6-1.4,1.8-1.9,3.6L170.4,29c-0.6,2.2-0.9,3.9-0.9,5.2c0,1.2,0.5,2.2,1.4,3.1c1,0.9,2.3,1.3,4,1.3c1.6,0,2.9-0.3,4-0.9
				c1.1-0.6,2-1.4,2.7-2.4c1-1.4,1.8-3.4,2.6-5.9l3.9-13.4c0.2-0.8,0.3-1.4,0.3-1.9c0-0.9-0.3-1.6-1-2.1c-0.5-0.3-1.4-0.5-2.8-0.5
				L184.9,10.7z"/>
			<path class="st0" d="M207,10.7l9.2,19.7l4.2-14.3c0.2-0.8,0.3-1.5,0.3-2.1c0-0.7-0.2-1.3-0.7-1.7c-0.5-0.4-1.2-0.7-2.4-0.8
				l0.2-0.8h9.4l-0.2,0.8c-1.2,0.1-2.2,0.4-3,1c-0.8,0.6-1.4,1.8-2,3.6l-7.2,24.5h-0.8l-11.9-25.2l-5.7,19.6
				c-0.2,0.7-0.3,1.3-0.3,1.8c0,0.8,0.3,1.4,0.8,1.9c0.5,0.5,1.3,0.7,2.5,0.7l-0.2,0.8h-9.6l0.2-0.8c0.8,0,1.4-0.1,1.8-0.2
				c0.6-0.2,1.2-0.7,1.8-1.3c0.6-0.7,1.1-1.6,1.4-2.9l6.3-21.5c-0.8-0.9-1.4-1.4-1.9-1.7c-0.5-0.2-1.3-0.4-2.4-0.4l0.2-0.8H207z"/>
			<path class="st0" d="M221.7,40.3l0.3-0.8c1.4,0,2.5-0.3,3.2-0.9c0.7-0.6,1.3-1.7,1.8-3.3l5.4-18.6c0.3-1.2,0.5-2.2,0.5-3
				c0-0.7-0.2-1.2-0.6-1.5s-1.4-0.5-3.1-0.6l0.3-0.8h10.1c5.3,0,9.2,1.1,11.5,3.2c2.4,2.2,3.5,5.2,3.5,9.1c0,2.7-0.5,5-1.6,6.9
				c-2.1,3.6-4.7,6.3-7.6,7.9c-2.9,1.6-6.7,2.4-11.3,2.4H221.7z M240.1,12.5l-6.5,22.4c-0.3,1-0.5,1.8-0.5,2.2c0,0.4,0.2,0.7,0.5,1
				c0.4,0.3,1.1,0.5,1.9,0.5c2,0,3.9-0.6,5.5-1.9c2.1-1.6,3.6-3.8,4.7-6.6s1.6-5.5,1.6-8.3c0-2-0.3-3.7-0.9-5.2
				c-0.6-1.5-1.6-2.6-2.9-3.4C242.7,12.7,241.5,12.5,240.1,12.5z"/>
		</g>
	</g>
	<g>
		<path class="st0" d="M0.5,101.2l3.3-41.6c0.1-1.2,0.1-2.2,0.1-3c0-1.3-0.3-2.2-0.9-2.8s-1.6-0.9-3.1-1l0.5-1.3h19.6l-0.4,1.3h-1
			c-1.3,0-2.3,0.4-3.1,1.3c-0.8,0.8-1.3,2.4-1.4,4.7l-1.9,24.7l14.7-20l0.4-4.6c0.1-1,0.1-1.7,0.1-2.3c0-1.2-0.3-2.1-0.9-2.7
			c-0.6-0.6-1.7-1-3.1-1l0.4-1.3h19.8l-0.4,1.3c-1.7,0-3,0.4-3.9,1.3c-0.8,0.8-1.3,2.4-1.5,4.7l-1.9,24.7L50,64.1
			c2.4-3.3,3.9-5.6,4.5-6.8c0.4-0.8,0.6-1.5,0.6-2.1c0-0.6-0.3-1-0.8-1.5c-0.5-0.4-1.6-0.7-3.1-0.9l0.4-1.3h13l-0.3,1.3
			C63,53,62.1,53.5,61.3,54c-1.1,0.8-2.5,2.4-4.2,4.8l-30.9,42.4h-2.1l2.5-32.8L2.7,101.2H0.5z"/>
		<path class="st0" d="M76.9,101.3c-3.9,0-7.1-0.8-9.5-2.4c-2.4-1.6-4.2-3.8-5.4-6.6c-1.2-2.8-1.8-5.5-1.8-8.1
			c0-5.3,1.5-10.7,4.6-16c3-5.4,7.1-9.7,12.3-12.9c5.1-3.2,10.2-4.9,15.3-4.9c2.9,0,5.7,0.7,8.4,2.2c2.6,1.5,4.7,3.5,6.2,6.2
			c1.5,2.7,2.2,5.3,2.2,8c0,6-1.9,12.1-5.8,18.2c-3.8,6.1-8.2,10.5-13,13.2C86.6,100.2,82.2,101.3,76.9,101.3z M91.1,53.3
			c-1.9,0-3.5,0.3-4.8,1c-1.3,0.7-2.7,1.8-4.1,3.4s-2.9,3.9-4.4,6.9c-1.5,3-2.9,7-4.2,12.1c-1.3,5.1-2,9.4-2,12.8
			c0,2.9,0.6,5.1,1.9,6.6c1.3,1.5,2.9,2.2,4.9,2.2c2.6,0,4.9-0.9,6.7-2.6c3.7-3.5,6.6-8.5,8.9-15.3c2.3-6.7,3.5-12.7,3.5-17.9
			c0-3.3-0.6-5.6-1.8-7.1C94.4,54,92.9,53.3,91.1,53.3z"/>
		<path class="st0" d="M130.3,76.4L126,91.1c-0.6,2.1-0.9,3.6-0.9,4.6c0,0.9,0.4,1.6,1.1,2.2c0.7,0.6,2.3,0.8,4.6,0.9l-0.5,1.3
			h-23.4l0.4-1.3c2.3,0,4.1-0.5,5.1-1.4c1.1-0.9,2.1-2.9,3-6.1l9-31.2c0.5-1.7,0.8-3.1,0.8-4.1c0-1-0.3-1.7-0.9-2.2
			c-0.6-0.5-2.1-0.8-4.3-1l0.4-1.3h20.1c5.8,0,9.8,1,12.2,3c2.3,2,3.5,4.6,3.5,7.7c0,3.3-1.4,6.3-4.1,9c-1.7,1.7-4.8,3.1-9.1,4.3
			l4.4,14.7c1.2,3.9,2.2,6.3,3.1,7.1c0.9,0.8,2.3,1.3,4.4,1.3v1.3h-15.1l-6.9-23.7l-1.2,0.1C131.3,76.5,130.9,76.4,130.3,76.4z
			 M130.8,74.2c0.8,0,1.5,0.1,2.1,0.1c3.5,0,6.4-1.2,8.6-3.6c2.2-2.4,3.4-5.5,3.4-9.4c0-2.3-0.6-4-1.8-5.2c-1.2-1.2-2.8-1.8-4.7-1.8
			c-0.5,0-1,0-1.7,0L130.8,74.2z"/>
		<path class="st0" d="M194.7,100.1h-38.8l0.4-1.3c2.3,0,4-0.4,5.1-1.3c1.1-0.9,2-2.9,3-6l9-31.2c0.5-1.7,0.8-3.1,0.8-4.1
			c0-1-0.4-1.7-1.1-2.3c-0.7-0.6-2.1-0.9-4.2-1l0.4-1.3h23.3l-0.4,1.3c-2.2,0-3.9,0.6-5,1.5c-1.1,1-2.1,2.9-3,5.8l-8.2,28.6
			c-1.1,3.6-1.6,5.8-1.6,6.6c0,0.5,0.3,0.9,0.8,1.3c0.5,0.4,1.4,0.6,2.6,0.6c4,0,7.8-0.9,11.5-2.7c3.7-1.8,6.8-4.5,9.4-8.1h1.5
			L194.7,100.1z"/>
		<path class="st0" d="M200.4,100.1l0.4-1.3c2.3,0,4.1-0.5,5.3-1.5c1.2-1,2.2-2.8,3-5.4l8.8-30.7c0.6-2,0.9-3.7,0.9-4.9
			c0-1.1-0.3-1.9-1-2.4c-0.7-0.5-2.4-0.9-5.1-1l0.4-1.3h16.6c8.8,0,15.1,1.8,19,5.3c3.9,3.5,5.8,8.5,5.8,14.9
			c0,4.5-0.9,8.3-2.7,11.4c-3.5,6-7.7,10.3-12.5,13c-4.8,2.7-11,4-18.6,4H200.4z M230.8,54.4l-10.7,36.9c-0.5,1.7-0.8,2.9-0.8,3.7
			c0,0.7,0.3,1.2,0.8,1.6c0.7,0.5,1.8,0.8,3.2,0.8c3.4,0,6.4-1.1,9-3.2c3.4-2.7,6-6.3,7.8-10.9c1.8-4.6,2.7-9.1,2.7-13.6
			c0-3.2-0.5-6.1-1.5-8.5s-2.6-4.3-4.8-5.5C235,54.8,233.1,54.4,230.8,54.4z"/>
	</g>
</g>
</svg>
