<?xml version="1.0" encoding="utf-8"?>
<!-- Generator: Adobe Illustrator 24.0.0, SVG Export Plug-In . SVG Version: 6.00 Build 0)  -->
<svg version="1.1" id="Capa_1" xmlns="http://www.w3.org/2000/svg" xmlns:xlink="http://www.w3.org/1999/xlink" x="0px" y="0px"
	 viewBox="0 0 254.6 111.3" style="enable-background:new 0 0 254.6 111.3;" xml:space="preserve">
<style type="text/css">
	.st0{fill-rule:evenodd;clip-rule:evenodd;fill:#FFFFFF;}
</style>
<g>
	<g>
		<path class="st0" d="M50.6,5.1c22.4,0,41.4,14.6,48.1,34.8h-1.6C92.4,26.1,81.7,15.1,68.2,9.9L27.5,36.2v36.1l34.1,20l4.1-7
			l7.4,14C83.7,93.8,92.1,84.4,96.5,73h1.6c-7.1,19.3-25.7,33.2-47.5,33.2C22.7,106.2,0,83.5,0,55.7C0,27.8,22.7,5.1,50.6,5.1z
			 M57,100.2l3.9-6.8L27.5,73.8v16.5h-6.9V21.5h6.9v13.2L66.7,9.3c-5.2-1.8-10.6-2.7-16.1-2.7c-27,0-49.1,22-49.1,49.1
			c0,27,22,49.1,49.1,49.1c7.1,0,14-1.5,20.5-4.5L57,100.2L57,100.2z M179.5,73.4h36.5V63.1h-22.2V39.3h-14.3L179.5,73.4L179.5,73.4
			z M180.7,72.2h34v-7.9h-22.2V40.5h-11.9L180.7,72.2L180.7,72.2L180.7,72.2z M218.1,73.4h36.5V63.1h-22.2V39.3h-14.3V73.4
			L218.1,73.4z M219.4,72.2h34v-7.9h-22.2V40.5h-11.9L219.4,72.2L219.4,72.2L219.4,72.2z M137.4,73.4h39.7V63.2l-25.4,0v-2.6h20.1
			V50.2h-20.1v-2.3h24l0-8.6h-38.3L137.4,73.4L137.4,73.4z M138.6,72.2h37.3v-7.8l-25.4,0v-5h20.1v-7.9h-20.1v-4.8h24l0-6.2h-35.9
			L138.6,72.2L138.6,72.2L138.6,72.2z"/>
		<path class="st0" d="M44.9,73.4h13.9l0.1-9.1l4.4-3.8l8.4,12.9H89L75.3,51.2l12.6-11.9H68.5l-9.7,9.8v-9.8H44.9V73.4z M46.1,72.2
			h11.5l0.1-8.5l5.9-5l8.8,13.5h14.5L73.7,51l11.1-10.5H69L57.6,52.1V40.5H46.1V72.2L46.1,72.2z M104.2,52V47H116
			c4.2-0.1,4.9,0.7,4.9,2.7c0.1,2-2.2,2.4-3.6,2.4H104.2z M105.4,50.8v-2.6l11.4,0c0.8,0,1.7,0,2.5,0.3c0.3,0.1,0.3,0.2,0.4,0.5
			c0.1,0.3,0.1,0.7,0,1.1c-0.2,0.6-1.2,0.7-1.7,0.8c-0.2,0-0.5,0-0.7,0H105.4L105.4,50.8z"/>
		<path class="st0" d="M90.9,73.5l14.6-0.1l0-12.5h6l8,12.5h16.3l-8.3-14.3c4-0.2,7.6-5.3,7.2-10.4c-0.4-4.8-4.3-9.4-8.6-9.4
			l-35.1,0L90.9,73.5L90.9,73.5z M92.1,72.2l12.2-0.1l0-12.5h7.9l8,12.5h13.6L125.4,58l2.5-0.2c0.3-0.1,0.6-0.2,0.8-0.3
			c0.5-0.2,1-0.5,1.4-0.9c0.3-0.2,0.5-0.5,0.8-0.8c0.5-0.6,0.9-1.2,1.3-1.9c0.2-0.4,0.3-0.7,0.5-1.1c0.2-0.7,0.4-1.3,0.5-2
			c0.1-0.4,0.1-0.8,0.1-1.3c0-0.7-0.1-1.3-0.2-2c-0.2-0.7-0.4-1.3-0.6-1.9l-0.4-0.7c-0.5-0.9-1.1-1.8-1.9-2.5
			c-0.5-0.4-0.9-0.8-1.5-1.1c-0.3-0.2-0.6-0.3-0.9-0.5c-0.5-0.2-1-0.3-1.6-0.4l-34.2-0.1V72.2L92.1,72.2z"/>
	</g>
</g>
</svg>
