<?xml version="1.0" encoding="utf-8"?>
<!-- Generator: Adobe Illustrator 24.0.0, SVG Export Plug-In . SVG Version: 6.00 Build 0)  -->
<svg version="1.1" id="Capa_1" xmlns="http://www.w3.org/2000/svg" xmlns:xlink="http://www.w3.org/1999/xlink" x="0px" y="0px"
	 viewBox="0 0 254.6 111.3" style="enable-background:new 0 0 254.6 111.3;" xml:space="preserve">
<style type="text/css">
	.st0{fill:#FFFFFF;}
</style>
<g>
	<path class="st0" d="M43.8,0v111.3h167V0H43.8z M157.5,35.7l1.4-4.2l1.4,4.2h4.4l-3.6,2.6l1.3,4.2l-3.5-2.6l-3.5,2.6l1.3-4.2
		l-3.6-2.6L157.5,35.7z M125.9,17.5l1.4-4.2l1.4,4.2h4.4l-3.6,2.6l1.3,4.2l-3.5-2.6l-3.5,2.6l1.3-4.2l-3.6-2.6L125.9,17.5z M85,54
		l4.4,0l1.4-4.2l1.4,4.2h4.4L93,56.6l1.3,4.2l-3.5-2.6l-3.5,2.6l1.3-4.2L85,54z M99.2,79l-3.5-2.6L92.2,79l1.3-4.2l-3.6-2.6h4.4
		l1.4-4.2l1.4,4.2h4.4l-3.6,2.6L99.2,79z M97.9,38.4l1.3,4.2l-3.5-2.6l-3.5,2.6l1.3-4.2l-3.6-2.6l4.4,0l1.4-4.2l1.4,4.2h4.4
		L97.9,38.4z M107.7,22.4l1.4-4.2l1.4,4.2h4.4l-3.6,2.6l1.3,4.2l-3.5-2.6l-3.5,2.6l1.3-4.2l-3.6-2.6L107.7,22.4z M112.6,92.4
		l-3.5-2.6l-3.5,2.6l1.3-4.2l-3.6-2.6l4.4,0l1.4-4.2l1.4,4.2h4.4l-3.6,2.6L112.6,92.4z M130.8,97.2l-3.5-2.6l-3.5,2.6l1.3-4.2
		l-3.6-2.6h4.4l1.3-4.2l1.4,4.2h4.4l-3.6,2.6L130.8,97.2z M149,92.4l-3.5-2.6l-3.5,2.6l1.3-4.2l-3.6-2.6l4.4,0l1.4-4.2l1.4,4.2h4.4
		l-3.6,2.6L149,92.4z M147.7,25l1.3,4.2l-3.5-2.6l-3.5,2.6l1.3-4.2l-3.6-2.6l4.4,0l1.4-4.2l1.4,4.2h4.4L147.7,25z M162.4,79
		l-3.5-2.6l-3.5,2.6l1.3-4.2l-3.6-2.6h4.4l1.4-4.2l1.4,4.2h4.4l-3.6,2.6L162.4,79z M167.2,60.7l-3.5-2.6l-3.5,2.6l1.3-4.2l-3.6-2.6
		h4.4l1.4-4.2l1.4,4.2h4.4l-3.6,2.6L167.2,60.7z"/>
</g>
</svg>
