<?xml version="1.0" encoding="utf-8"?>
<!-- Generator: Adobe Illustrator 24.0.0, SVG Export Plug-In . SVG Version: 6.00 Build 0)  -->
<svg version="1.1" id="Capa_1" xmlns="http://www.w3.org/2000/svg" xmlns:xlink="http://www.w3.org/1999/xlink" x="0px" y="0px"
	 viewBox="0 0 340 132" style="enable-background:new 0 0 340 132;" xml:space="preserve">
<style type="text/css">
	.st0{fill:#FFFFFF;}
	.st1{fill-rule:evenodd;clip-rule:evenodd;fill:#FFFFFF;}
</style>
<path id="path2555" class="st0" d="M148.3,76.8c-1.5,0-10.4,0-10.4,0v7.1c4,0,9.1,0,10.4,0c1.4,0,2.4-1.7,2.4-3.5
	C150.7,78.6,149.8,76.8,148.3,76.8z M150.1,88.6c-3.4,0-12.1,0-12.1,0v6.5h-5V72.2c0,0,13.9,0,16.6,0c4,0,6.3,3.2,6.3,8.3
	C155.8,85.1,153.5,88.6,150.1,88.6z"/>
<path id="path2555_0" class="st0" d="M169.3,75.4l-4.7,10.8h9.3L169.3,75.4z M177.8,95.1l-1.9-4.4h-13.3l-2,4.4h-5.2l10-22.9
	c0,0,3.9,0,4.7,0c2.2,0,3.2,0.8,4,2.4c0.5,1.1,9,20.5,9,20.5H177.8z"/>
<path id="path2555_1" class="st0" d="M250.8,75.7l-4.7,10.6h9.2L250.8,75.7z M259.3,95.1l-2-4.4h-13.1l-2,4.4h-4V92l8.8-19.8
	c0,0,3.8,0,4.6,0c2.3,0,3.3,0.8,4,2.4c0.5,1.1,9,20.5,9,20.5H259.3L259.3,95.1z"/>
<path id="path2555_2" class="st0" d="M283.4,76.9c-1.5,0-10.1,0-10.1,0v7.2c3.2,0,8.6,0,9.9,0c1.8,0,2.8-1.8,2.8-3.6
	C286.1,78.7,284.9,76.9,283.4,76.9z M288.5,87.9c1.1,0.8,1.8,2,1.8,3.1c0,2.2,0,4,0,4h-4.9c0,0,0-2.2,0-3.5s-1.1-2.9-3.6-2.9
	c-3.2,0-8.4,0-8.4,0v6.4h-5V72.2c0,0,13.5,0,16.1,0c4,0,6.8,3.7,6.8,8.7C291.3,84.1,290.3,86.7,288.5,87.9L288.5,87.9z"/>
<path id="path2555_3" class="st0" d="M313.4,77.3c-0.6-0.6-1.5-0.7-2.4-0.7c-1,0-9.7,0-9.7,0v13.9c3.8,0,6,0,9.7,0
	c0.9,0,1.8-0.1,2.3-0.6c0.7-0.8,1.1-2.7,1.1-6.6C314.5,79.5,314.4,78,313.4,77.3z M316.8,93.9c-1.5,1.2-3.1,1.2-4.4,1.2
	c-2,0-16.2,0-16.2,0V72.2c0,0,9.9,0,16.2,0c1.3,0,3.2,0.2,4.4,1.2c1.1,1,2.6,2.2,2.6,9.7C319.4,90.7,318.5,92.6,316.8,93.9z"/>
<polygon id="path2555_4" class="st0" points="151.8,59.6 151.8,50 138,50 138,59.6 133,59.6 133,36.7 138,36.7 138,45.6 151.8,45.6 
	151.8,36.7 156.8,36.7 156.8,59.6 "/>
<path id="path2555_5" class="st0" d="M207.8,93.3c-1.7,1.7-2.8,2-10.2,2c-7.1,0-8.3-0.1-10.1-2c-1.6-1.7-2-4.5-2-9.7
	c0-5,0.3-7.8,2-9.5c1.8-1.9,3-2,10.1-2c7.3,0,8.5,0.3,10.2,2c0.8,0.8,1.2,2.1,1.2,3.5c0,0.3,0,1.1,0,1.5h-4.8c0,0-0.1-1.4-0.4-1.9
	c-0.4-0.6-1.5-0.8-6.2-0.8c-5,0-5.7,0.1-6.3,0.7c-0.5,0.6-0.7,1.8-0.7,6.5c0,4.7,0.2,6,0.7,6.6c0.5,0.6,1.3,0.7,6.3,0.7
	c4.7,0,5.8-0.2,6.2-0.8c0.4-0.5,0.3-1.2,0.3-1.9h4.9c0,0.4,0,1.3,0,1.6C209,91.2,208.6,92.5,207.8,93.3L207.8,93.3z"/>
<path id="path2555_6" class="st0" d="M166.6,59.6c-2.2,0-4-1.2-4-3.4c0-8.9,0-12.4,0-16c0-2,1.6-3.4,4-3.4c1.4,0,17.1,0,17.1,0v4.9
	h-16.2v4h14.2V50h-14.2v4.7h16.8v4.9C184.4,59.6,171,59.6,166.6,59.6z"/>
<polygon id="path2555_7" class="st0" points="226.4,83 235.3,92 235.3,95.1 231.6,95.1 222,85.4 218.7,85.4 218.7,95.1 213.7,95.1 
	213.7,72.2 218.7,72.2 218.7,80.5 222,80.5 230.4,72.2 237.2,72.2 "/>
<path id="path2555_8" class="st0" d="M215.6,59.6c0,0-2.9,0-4,0c-1,0-2.5-0.9-2.9-2.7c-0.4-1.8-3.5-13.5-3.5-13.5l-4.4,16.2
	c-1.4,0-2.7,0-3.8,0c-1.1,0-2.5-0.7-3.3-3.2c-0.7-2.4-6.1-19.6-6.1-19.6h5.2l4.8,15.8l4.9-15.8h5.6l4.9,15.8l5-15.8h5.3L215.6,59.6
	L215.6,59.6z"/>
<path id="path2555_9" class="st0" d="M231,59.6c-2.1,0-4-1.2-4-3.4c0-8.9,0-19.5,0-19.5h5v18h14.4v4.9
	C246.3,59.6,235.4,59.6,231,59.6z"/>
<path id="path2555_10" class="st0" d="M253,59.6c-2.1,0-4-1.2-4-3.4c0-8.9,0-12.4,0-16c0-2,1.6-3.4,4-3.4c1.4,0,17.1,0,17.1,0v4.9
	h-16.2v4h14.1V50h-14.1v4.7h16.8v4.9C270.7,59.6,257.4,59.6,253,59.6z"/>
<polygon id="path2555_11" class="st0" points="287.3,41.6 287.3,59.6 282.3,59.6 282.3,41.6 274.7,41.6 274.7,36.7 294.9,36.7 
	294.9,41.6 "/>
<polygon id="path2555_12" class="st0" points="311.5,41.6 311.5,59.6 306.5,59.6 306.5,41.6 298.9,41.6 298.9,36.7 319.1,36.7 
	319.1,41.6 "/>
<path id="path2555_13" class="st0" d="M329.9,39.2c-0.2,0-0.9,0-1.1,0v2.3c0.2,0,0.9,0,1.1,0c0.9,0,1.5-0.3,1.5-1.2
	C331.3,39.6,330.8,39.2,329.9,39.2L329.9,39.2z M331.4,45.6c-0.2-0.9-0.3-2.3-0.4-2.7c-0.3-0.6-0.8-0.6-1.2-0.6c-0.5,0-0.7,0-1.1,0
	v3.2h-1.2v-7.4c0.4,0,2,0,2.5,0c1.1,0,2.5,0.6,2.5,1.9c0,1-0.6,1.6-1.5,1.8c0.3,0.1,0.7,0.3,0.8,0.4c0.5,0.4,0.5,1.1,0.5,1.8
	c0.2,1,0.3,1.3,0.4,1.6C332.4,45.6,331.8,45.6,331.4,45.6L331.4,45.6z M329.9,36.6c-3,0-5.4,2.5-5.4,5.5c0,2.9,2.5,5.4,5.4,5.4
	c3,0,5.4-2.5,5.4-5.4C335.3,39.1,332.9,36.6,329.9,36.6z M329.9,48.3c-3.5,0-6.3-2.8-6.3-6.2c0-3.5,2.8-6.3,6.3-6.3
	c3.4,0,6.2,2.7,6.2,6.3C336.1,45.5,333.3,48.3,329.9,48.3z"/>
<g id="hp.svg">
	<path class="st1" d="M64.7,122.9c-0.6,0-1.2,0-1.8,0L74.9,90h16.4c2.9,0,6.1-2.2,7-4.9l13-35.6c2.1-5.8-1.2-10.6-7.4-10.6H81.1
		L62,91.5l0,0l-10.8,29.8C25.4,115.2,6.3,92.1,6.3,64.5c0-26.8,18-49.4,42.7-56.2L37.7,38.9l0,0L19.1,90h12.4l15.8-43.4h9.3L40.8,90
		h12.4l14.8-40.5c2.1-5.8-1.2-10.6-7.4-10.6H50.1L62.1,6.1c0.9,0,1.7-0.1,2.6-0.1c32.3,0,58.4,26.1,58.4,58.4S97,122.9,64.7,122.9z
		 M100,46.6h-9.3l-13,35.8H87L100,46.6z"/>
</g>
</svg>
