<?xml version="1.0" encoding="utf-8"?>
<!-- Generator: Adobe Illustrator 24.0.0, SVG Export Plug-In . SVG Version: 6.00 Build 0)  -->
<svg version="1.1" id="Capa_1" xmlns="http://www.w3.org/2000/svg" xmlns:xlink="http://www.w3.org/1999/xlink" x="0px" y="0px"
	 viewBox="0 0 2231.7 302.2" style="enable-background:new 0 0 2231.7 302.2;" xml:space="preserve">
<style type="text/css">
	.st0{fill-rule:evenodd;clip-rule:evenodd;fill:#FFFFFF;}
</style>
<g>
	<path class="st0" d="M0,4.6h360.2v64.1H74.8V116h287v70.2h-287v116H0L0,4.6L0,4.6z M413.7,4.6h74.8v222.9h238.1v74.8H413.7V4.6
		L413.7,4.6z M966.2,302.2h-145c0,0-50.4-1.5-56.5-56.5V4.6h74.8v229h264.1V4.6h74.8v241.2c-6.1,54.9-56.5,56.5-56.5,56.5
		L966.2,302.2L966.2,302.2z M1244,4.6v297.7h79.4V190.8l180.1,111.4h132.8l-242.7-152.6l230.5-145h-131.3l-169.4,102.3V4.6H1244
		L1244,4.6z M1671.5,0v297.7H2047v-70.2h-300.7v-41.2H2047V116h-300.7V70.2H2047V0H1671.5z M2187.4,213.7
		c-24.4,0-44.3,19.8-44.3,44.3s19.9,44.3,44.3,44.3c24.4,0,44.3-19.9,44.3-44.3S2211.8,213.7,2187.4,213.7z M2185.9,221.3h1.5
		c19.8,0,35.1,15.3,35.1,36.6c0,19.9-15.3,36.6-35.1,36.6c-19.9,0-35.1-16.8-35.1-36.6C2152.3,238.1,2166,222.8,2185.9,221.3z
		 M2170.6,232v50.4h7.6V261h9.2l13.7,21.3h7.6L2195,261c7.6-1.5,12.2-6.1,12.2-13.8c0-10.7-6.1-15.3-16.8-15.3H2170.6L2170.6,232z
		 M2178.2,254.9v-15.3h10.7c7.6,0,10.7,1.5,10.7,7.6c0,4.6-3.1,7.7-9.2,7.7L2178.2,254.9L2178.2,254.9z"/>
</g>
</svg>
