<?xml version="1.0" encoding="utf-8"?>
<!-- Generator: Adobe Illustrator 24.0.0, SVG Export Plug-In . SVG Version: 6.00 Build 0)  -->
<svg version="1.1" id="Capa_1" xmlns="http://www.w3.org/2000/svg" xmlns:xlink="http://www.w3.org/1999/xlink" x="0px" y="0px"
	 viewBox="0 0 254.6 111.3" style="enable-background:new 0 0 254.6 111.3;" xml:space="preserve">
<style type="text/css">
	.st0{fill:none;stroke:#FFFFFF;stroke-width:0.7765;stroke-miterlimit:10;}
	.st1{fill:#FFFFFF;}
</style>
<g>
	<path class="st0" d="M41.1,33.5c-3.3,14.6,23.5,6.8,26.6,9c19.7,12.2,27.2,34.6,53.9,31.1c-37.3-5.3-31-43.3-71.5-36.7
		C43.8,36.2,45.4,38.7,41.1,33.5z"/>
	<path class="st0" d="M2,27.9C-6,50.6,34.7,39.6,44.7,42c0,0-3.4-0.6-3.7-6C21.8,34.6-0.1,41.2,2,27.9z"/>
	<path class="st0" d="M7.9,42c-0.6,9.5,38.1,3.8,42.3,5.2c0,0-3.7-1.8-3.5-5L7.9,42z"/>
	<path class="st0" d="M50.2,47.3h24.4c-3.8-7.4-23-4.5-27.9-5C46.8,42.2,46.4,45.1,50.2,47.3z"/>
	<path class="st0" d="M7.9,42c-0.6,9.5,38.1,3.8,42.3,5.2c0,0-3.7-1.8-3.5-5L7.9,42z"/>
	<path class="st0" d="M50.2,47.3h24.4c-3.8-7.4-23-4.5-27.9-5C46.8,42.2,46.4,45.1,50.2,47.3z"/>
	<path class="st0" d="M21.2,47.3c0,9.5,31.4,4.8,36.4,5.8c0,0-3.2-1.8-3.7-5.8H21.2z"/>
	<path class="st0" d="M80,53.1H57.1c0,0-3.2-2.7-3.3-5.8h21L80,53.1z"/>
	<path class="st0" d="M33.7,53.1c-0.1,8.2,27.8,4.1,31.9,5c0,0-2.8-1.6-3.3-5H33.7z"/>
	<path class="st0" d="M85.3,58.1H65.2c0,0-2.8-2.4-2.9-5h18.4L85.3,58.1z"/>
	<path class="st0" d="M44.7,58.4c0.2,6.2,24.6,3.2,27.9,3.8c0,0-2.5-1.2-2.8-3.8H44.7z"/>
	<path class="st0" d="M89.8,62.2H72.2c0,0-2.4-1.8-2.5-3.8h16.1L89.8,62.2z"/>
	<path class="st0" d="M54.6,62.4c-0.3,9,20.2,4.7,24.1,5.6c0,0-2.1-1.8-2.5-5.6H54.6z"/>
	<path class="st0" d="M66.6,68.3c-0.4,9.9,39,3.9,44,5.2c0,0-10.4-2.8-13.1-5.2H66.6z"/>
	<path class="st0" d="M97.3,68.1H78.4c0,0-2.1-2.7-2.2-5.6h13.9L97.3,68.1z"/>
	<path class="st0" d="M41.1,33.5c-3.3,14.6,23.5,6.8,26.6,9c19.7,12.2,27.2,34.6,53.9,31.1c-37.3-5.3-31-43.3-71.5-36.7
		C43.8,36.2,45.4,38.7,41.1,33.5z"/>
	<path class="st0" d="M2,27.9C-6,50.6,34.7,39.6,44.7,42c0,0-3.4-0.6-3.7-6C21.8,34.6-0.1,41.2,2,27.9z"/>
	<path class="st0" d="M7.9,42c-0.6,9.5,38.1,3.8,42.3,5.2c0,0-3.7-1.8-3.5-5L7.9,42z"/>
	<path class="st0" d="M50.2,47.3h24.4c-3.8-7.4-23-4.5-27.9-5C46.8,42.2,46.4,45.1,50.2,47.3z"/>
	<path class="st0" d="M7.9,42c-0.6,9.5,38.1,3.8,42.3,5.2c0,0-3.7-1.8-3.5-5L7.9,42z"/>
	<path class="st0" d="M50.2,47.3h24.4c-3.8-7.4-23-4.5-27.9-5C46.8,42.2,46.4,45.1,50.2,47.3z"/>
	<path class="st0" d="M21.2,47.3c0,9.5,31.4,4.8,36.4,5.8c0,0-3.2-1.8-3.7-5.8H21.2z"/>
	<path class="st0" d="M80,53.1H57.1c0,0-3.2-2.7-3.3-5.8h21L80,53.1z"/>
	<path class="st0" d="M33.7,53.1c-0.1,8.2,27.8,4.1,31.9,5c0,0-2.8-1.6-3.3-5H33.7z"/>
	<path class="st0" d="M85.3,58.1H65.2c0,0-2.8-2.4-2.9-5h18.4L85.3,58.1z"/>
	<path class="st0" d="M44.7,58.4c0.2,6.2,24.6,3.2,27.9,3.8c0,0-2.5-1.2-2.8-3.8H44.7z"/>
	<path class="st0" d="M89.8,62.2H72.2c0,0-2.4-1.8-2.5-3.8h16.1L89.8,62.2z"/>
	<path class="st0" d="M54.6,62.4c-0.3,9,20.2,4.7,24.1,5.6c0,0-2.1-1.8-2.5-5.6H54.6z"/>
	<path class="st0" d="M66.6,68.3c-0.4,9.9,39,3.9,44,5.2c0,0-10.4-2.8-13.1-5.2H66.6z"/>
	<path class="st0" d="M97.3,68.1H78.4c0,0-2.1-2.7-2.2-5.6h13.9L97.3,68.1z"/>
	<rect x="121.5" y="72" class="st0" width="11.3" height="5.3"/>
	<path class="st0" d="M100.3,77.3v6.1c0.7-2.1,15.4-3.8,26.4-6.1h-5.1v-1.7C121.5,75.6,108.1,75.2,100.3,77.3z"/>
	<path class="st0" d="M213.5,33.5c3.3,14.6-23.5,6.8-26.6,9c-19.7,12.2-27.2,34.6-53.9,31.1c37.3-5.3,31-43.3,71.5-36.7
		C210.8,36.2,209.2,38.7,213.5,33.5z"/>
	<path class="st0" d="M252.6,27.9c8,22.7-32.8,11.7-42.7,14.1c0,0,3.4-0.6,3.7-6C232.8,34.6,254.7,41.2,252.6,27.9z"/>
	<path class="st0" d="M246.7,42c0.6,9.5-38.1,3.8-42.3,5.2c0,0,3.7-1.8,3.5-5L246.7,42z"/>
	<path class="st0" d="M204.4,47.3H180c3.8-7.4,23-4.5,27.9-5C207.8,42.2,208.2,45.1,204.4,47.3z"/>
	<path class="st0" d="M246.7,42c0.6,9.5-38.1,3.8-42.3,5.2c0,0,3.7-1.8,3.5-5L246.7,42z"/>
	<path class="st0" d="M204.4,47.3H180c3.8-7.4,23-4.5,27.9-5C207.8,42.2,208.2,45.1,204.4,47.3z"/>
	<path class="st0" d="M233.4,47.3c0,9.5-31.4,4.8-36.4,5.8c0,0,3.2-1.8,3.7-5.8H233.4z"/>
	<path class="st0" d="M174.6,53.1h22.9c0,0,3.2-2.7,3.3-5.8h-21L174.6,53.1z"/>
	<path class="st0" d="M220.9,53.1c0.1,8.2-27.8,4.1-31.9,5c0,0,2.8-1.6,3.3-5H220.9z"/>
	<path class="st0" d="M169.3,58.1h20.1c0,0,2.8-2.4,2.9-5h-18.4L169.3,58.1z"/>
	<path class="st0" d="M209.9,58.4c-0.2,6.2-24.6,3.2-27.9,3.8c0,0,2.5-1.2,2.8-3.8H209.9z"/>
	<path class="st0" d="M164.8,62.2h17.6c0,0,2.4-1.8,2.5-3.8h-16.1L164.8,62.2z"/>
	<path class="st0" d="M200,62.4c0.3,9-20.2,4.7-24.1,5.6c0,0,2.1-1.8,2.5-5.6H200z"/>
	<path class="st0" d="M188,68.3c0.4,9.9-39,3.9-44,5.2c0,0,10.4-2.8,13.1-5.2H188z"/>
	<path class="st0" d="M157.3,68.1h18.9c0,0,2.1-2.7,2.2-5.6h-13.9L157.3,68.1z"/>
	<path class="st0" d="M213.5,33.5c3.3,14.6-23.5,6.8-26.6,9c-19.7,12.2-27.2,34.6-53.9,31.1c37.3-5.3,31-43.3,71.5-36.7
		C210.8,36.2,209.2,38.7,213.5,33.5z"/>
	<path class="st0" d="M252.6,27.9c8,22.7-32.8,11.7-42.7,14.1c0,0,3.4-0.6,3.7-6C232.8,34.6,254.7,41.2,252.6,27.9z"/>
	<path class="st0" d="M246.7,42c0.6,9.5-38.1,3.8-42.3,5.2c0,0,3.7-1.8,3.5-5L246.7,42z"/>
	<path class="st0" d="M204.4,47.3H180c3.8-7.4,23-4.5,27.9-5C207.8,42.2,208.2,45.1,204.4,47.3z"/>
	<path class="st0" d="M246.7,42c0.6,9.5-38.1,3.8-42.3,5.2c0,0,3.7-1.8,3.5-5L246.7,42z"/>
	<path class="st0" d="M204.4,47.3H180c3.8-7.4,23-4.5,27.9-5C207.8,42.2,208.2,45.1,204.4,47.3z"/>
	<path class="st0" d="M233.4,47.3c0,9.5-31.4,4.8-36.4,5.8c0,0,3.2-1.8,3.7-5.8H233.4z"/>
	<path class="st0" d="M174.6,53.1h22.9c0,0,3.2-2.7,3.3-5.8h-21L174.6,53.1z"/>
	<path class="st0" d="M220.9,53.1c0.1,8.2-27.8,4.1-31.9,5c0,0,2.8-1.6,3.3-5H220.9z"/>
	<path class="st0" d="M169.3,58.1h20.1c0,0,2.8-2.4,2.9-5h-18.4L169.3,58.1z"/>
	<path class="st0" d="M209.9,58.4c-0.2,6.2-24.6,3.2-27.9,3.8c0,0,2.5-1.2,2.8-3.8H209.9z"/>
	<path class="st0" d="M164.8,62.2h17.6c0,0,2.4-1.8,2.5-3.8h-16.1L164.8,62.2z"/>
	<path class="st0" d="M200,62.4c0.3,9-20.2,4.7-24.1,5.6c0,0,2.1-1.8,2.5-5.6H200z"/>
	<path class="st0" d="M188,68.3c0.4,9.9-39,3.9-44,5.2c0,0,10.4-2.8,13.1-5.2H188z"/>
	<path class="st0" d="M157.3,68.1h18.9c0,0,2.1-2.7,2.2-5.6h-13.9L157.3,68.1z"/>
	<path class="st0" d="M154.3,77.3v6.1c-0.7-2.1-15.4-3.8-26.4-6.1h5.1v-1.7C133.1,75.6,146.5,75.2,154.3,77.3z"/>
	<path class="st0" d="M127.2,28.1c-29,0-45.9,16.6-45.9,16.6l21.5,22c20.5-16.4,38.9-8.3,48.8,0l21.5-22
		C173.1,44.8,156.2,28.1,127.2,28.1z"/>
	<g>
		<path class="st1" d="M97,47.1l1.8,2.7l0.1-0.1c0.4-0.3,0.7-0.6,0.7-1c0-0.4-0.1-0.9-0.4-1.4l0.2-0.1l2.3,3.5l-0.2,0.1
			c-0.3-0.4-0.6-0.6-0.9-0.8c-0.3-0.2-0.5-0.2-0.8-0.2S99.4,50,99,50.2l1.2,1.9c0.2,0.4,0.4,0.6,0.5,0.7c0.1,0.1,0.2,0.1,0.3,0.1
			c0.1,0,0.3-0.1,0.5-0.2l0.4-0.3c0.6-0.4,1-0.9,1.2-1.4c0.2-0.5,0.2-1.2,0-1.9l0.2-0.1l1.1,2.3l-5.8,3.7l-0.1-0.2l0.2-0.1
			c0.2-0.1,0.3-0.3,0.4-0.4c0.1-0.1,0.1-0.2,0-0.4c0-0.1-0.1-0.3-0.3-0.7l-2.8-4.4c-0.2-0.3-0.3-0.5-0.4-0.5
			c-0.1-0.1-0.2-0.1-0.4-0.2c-0.2,0-0.4,0.1-0.6,0.2l-0.2,0.1l-0.1-0.2l5.7-3.6l1.3,2l-0.2,0.1c-0.4-0.4-0.8-0.7-1.1-0.8
			s-0.7-0.1-1,0c-0.2,0.1-0.6,0.3-1.1,0.6L97,47.1z"/>
		<path class="st1" d="M105.6,48.8c0.2-0.1,0.5-0.1,0.8,0c0.3,0.1,0.4,0.3,0.6,0.5c0.1,0.2,0.1,0.5,0,0.8c-0.1,0.3-0.3,0.4-0.5,0.6
			s-0.5,0.1-0.7,0c-0.3-0.1-0.4-0.3-0.6-0.5c-0.1-0.2-0.1-0.5,0-0.8C105.1,49.1,105.3,49,105.6,48.8z"/>
		<path class="st1" d="M108.1,41.5l1.1,3.1l0.2-0.1c0.5-0.2,0.8-0.4,0.9-0.8c0.1-0.4,0.1-0.9,0-1.5l0.2-0.1l1.4,4l-0.2,0.1
			c-0.2-0.4-0.4-0.7-0.6-1s-0.5-0.4-0.7-0.4c-0.2,0-0.5,0-0.9,0.1l0.7,2.1c0.1,0.4,0.2,0.7,0.3,0.7c0.1,0.1,0.2,0.1,0.3,0.2
			c0.1,0,0.3,0,0.5-0.1l0.5-0.2c0.7-0.2,1.2-0.6,1.5-1.1s0.4-1.1,0.4-1.8l0.2-0.1l0.5,2.5l-6.5,2.3l-0.1-0.2l0.3-0.1
			c0.2-0.1,0.4-0.2,0.5-0.3c0.1-0.1,0.1-0.2,0.1-0.3c0-0.1-0.1-0.3-0.2-0.7l-1.7-5c-0.1-0.3-0.2-0.5-0.2-0.6
			c-0.1-0.1-0.2-0.2-0.3-0.2c-0.2-0.1-0.4,0-0.6,0l-0.3,0.1l-0.1-0.2l6.3-2.2l0.8,2.2l-0.2,0.1c-0.3-0.5-0.6-0.9-0.9-1
			c-0.3-0.2-0.6-0.3-1-0.2c-0.2,0-0.6,0.1-1.2,0.3L108.1,41.5z"/>
		<path class="st1" d="M116,45.2c0.3-0.1,0.5,0,0.7,0.1c0.2,0.1,0.4,0.4,0.4,0.6c0.1,0.3,0,0.5-0.1,0.7c-0.1,0.2-0.4,0.4-0.6,0.4
			c-0.3,0.1-0.5,0-0.7-0.1c-0.2-0.1-0.4-0.4-0.4-0.6c-0.1-0.3,0-0.5,0.1-0.7C115.5,45.4,115.7,45.3,116,45.2z"/>
		<path class="st1" d="M122.4,37.9l0.4,2.6l-0.2,0c-0.2-0.7-0.5-1.2-1-1.5s-1-0.5-1.5-0.4c-0.4,0-0.7,0.2-0.9,0.4
			c-0.2,0.2-0.3,0.5-0.3,0.8c0,0.2,0.1,0.3,0.2,0.5c0.1,0.2,0.3,0.3,0.6,0.5c0.2,0.1,0.6,0.3,1.4,0.5c1,0.4,1.7,0.7,2,1.1
			c0.4,0.4,0.6,0.8,0.6,1.3c0.1,0.7-0.1,1.3-0.6,1.8c-0.5,0.5-1.1,0.9-1.9,0.9c-0.3,0-0.5,0-0.7,0c-0.2,0-0.5-0.1-0.9-0.2
			c-0.2-0.1-0.4-0.1-0.5-0.1c-0.1,0-0.2,0.1-0.3,0.2c-0.1,0.1-0.2,0.2-0.2,0.4l-0.2,0l-0.3-3l0.2,0c0.3,0.8,0.7,1.4,1.2,1.8
			c0.5,0.4,1.1,0.6,1.7,0.5c0.4,0,0.8-0.2,1-0.5s0.3-0.6,0.3-0.9c0-0.2-0.1-0.4-0.2-0.5s-0.3-0.3-0.5-0.5c-0.2-0.1-0.6-0.3-1.2-0.5
			c-0.8-0.3-1.3-0.5-1.7-0.7c-0.3-0.2-0.6-0.5-0.8-0.8s-0.3-0.6-0.4-1c-0.1-0.6,0.1-1.2,0.5-1.7c0.4-0.5,1-0.8,1.7-0.9
			c0.3,0,0.5,0,0.8,0c0.2,0,0.4,0.1,0.7,0.2c0.3,0.1,0.5,0.1,0.6,0.1c0.1,0,0.2-0.1,0.2-0.1s0.1-0.2,0.1-0.5L122.4,37.9z"/>
		<path class="st1" d="M125.6,44.1c0.3,0,0.5,0.1,0.7,0.3c0.2,0.2,0.3,0.4,0.3,0.7c0,0.3-0.1,0.5-0.3,0.7c-0.2,0.2-0.4,0.3-0.7,0.3
			c-0.3,0-0.5-0.1-0.7-0.3c-0.2-0.2-0.3-0.4-0.3-0.7c0-0.3,0.1-0.5,0.3-0.7C125.1,44.2,125.4,44.2,125.6,44.1z"/>
		<path class="st1" d="M135.3,38.6l-0.2,2.2l-0.2,0c-0.1-0.5-0.2-0.9-0.3-1.1c-0.1-0.2-0.3-0.4-0.6-0.6c-0.1-0.1-0.4-0.1-0.8-0.2
			l-0.6-0.1l-0.6,6.1c0,0.4,0,0.7,0,0.8c0,0.1,0.1,0.2,0.2,0.3c0.1,0.1,0.3,0.1,0.5,0.2l0.3,0l0,0.2l-4.2-0.4l0-0.2l0.3,0
			c0.2,0,0.4,0,0.6-0.1c0.1,0,0.2-0.1,0.3-0.3c0.1-0.1,0.1-0.3,0.1-0.7l0.6-6.1l-0.6-0.1c-0.5-0.1-0.9,0-1.2,0.2
			c-0.4,0.3-0.6,0.7-0.8,1.3l-0.2,0l0.2-2.2L135.3,38.6z"/>
		<path class="st1" d="M135.7,45c0.3,0.1,0.5,0.2,0.6,0.4c0.2,0.2,0.2,0.5,0.2,0.7c0,0.3-0.2,0.5-0.4,0.6s-0.5,0.2-0.7,0.2
			c-0.3-0.1-0.5-0.2-0.6-0.4s-0.2-0.5-0.2-0.7c0-0.3,0.2-0.5,0.4-0.6C135.2,45.1,135.5,45,135.7,45z"/>
		<path class="st1" d="M141.9,40.1l2.4,5.9l1-3.3c0.1-0.5,0.2-0.8,0.1-1c-0.1-0.3-0.4-0.5-0.8-0.6l0.1-0.2l2.5,0.8l-0.1,0.2
			c-0.3-0.1-0.6-0.1-0.7,0c-0.1,0-0.3,0.1-0.4,0.2s-0.2,0.4-0.3,0.7l-1.9,6.4l-0.2-0.1l-3.3-7.9l-1.4,4.9c-0.1,0.4-0.1,0.8,0,1
			c0.2,0.2,0.4,0.4,0.6,0.4l0.2,0.1l-0.1,0.2l-2.7-0.8l0.1-0.2c0.4,0.1,0.7,0.1,1,0c0.2-0.1,0.4-0.4,0.5-0.8l1.6-5.4l-0.1-0.3
			c-0.1-0.3-0.2-0.4-0.3-0.5s-0.3-0.2-0.5-0.3l0.1-0.2L141.9,40.1z"/>
		<path class="st1" d="M150.2,42.8c0.3,0.1,0.6,0.3,0.8,0.6c0.2,0.3,0.4,0.6,0.4,1s0,0.7-0.1,1.1c-0.2,0.5-0.6,0.9-1.1,1.1
			c-0.5,0.2-1,0.2-1.6,0c-0.5-0.2-0.9-0.6-1.1-1.1c-0.2-0.5-0.2-1,0-1.6c0.1-0.3,0.4-0.6,0.6-0.8s0.6-0.4,1-0.4
			S149.9,42.7,150.2,42.8z M149.9,43.5c-0.3-0.1-0.7-0.1-1,0s-0.6,0.4-0.7,0.7c-0.1,0.3-0.1,0.6,0,1c0.1,0.3,0.4,0.6,0.7,0.7
			c0.3,0.1,0.6,0.1,1,0s0.6-0.4,0.7-0.7c0.1-0.3,0.1-0.6,0-1S150.2,43.6,149.9,43.5z"/>
		<path class="st1" d="M153.7,53.7l5.1-4.7l-1.5-0.8c-0.6-0.3-1-0.5-1.4-0.5c-0.3,0-0.5,0.1-0.8,0.3l-0.2-0.1l1.7-1.9l4.2,2.3
			l-6.3,5.9L153.7,53.7z"/>
	</g>
	<g>
		<path class="st1" d="M119.8,62.4v1.8h-0.2c-0.1-0.4-0.2-0.7-0.3-0.9c-0.1-0.2-0.3-0.3-0.5-0.4c-0.1-0.1-0.3-0.1-0.7-0.1h-0.5V68
			c0,0.3,0,0.6,0.1,0.6c0,0.1,0.1,0.2,0.2,0.2c0.1,0.1,0.3,0.1,0.5,0.1h0.2v0.2h-3.5v-0.2h0.2c0.2,0,0.4,0,0.5-0.1
			c0.1,0,0.2-0.1,0.2-0.2c0-0.1,0.1-0.3,0.1-0.6v-5.2h-0.5c-0.5,0-0.8,0.1-1,0.3c-0.3,0.3-0.5,0.6-0.5,1.1h-0.2v-1.8H119.8z"/>
		<path class="st1" d="M120.7,67.6c0.2,0,0.4,0.1,0.6,0.2c0.2,0.2,0.2,0.4,0.2,0.6c0,0.2-0.1,0.4-0.2,0.6c-0.2,0.2-0.4,0.2-0.6,0.2
			s-0.4-0.1-0.6-0.2c-0.2-0.2-0.2-0.4-0.2-0.6c0-0.2,0.1-0.4,0.2-0.6S120.5,67.6,120.7,67.6z"/>
		<path class="st1" d="M124.7,66.1v1.9c0,0.4,0,0.6,0.1,0.7c0,0.1,0.1,0.2,0.2,0.2c0.1,0.1,0.3,0.1,0.6,0.1v0.2h-3.4v-0.2
			c0.3,0,0.5,0,0.6-0.1c0.1-0.1,0.2-0.1,0.2-0.2c0-0.1,0.1-0.3,0.1-0.7v-4.3c0-0.4,0-0.6-0.1-0.7s-0.1-0.2-0.2-0.2
			c-0.1-0.1-0.3-0.1-0.6-0.1v-0.2h3.1c0.8,0,1.4,0.1,1.8,0.2c0.4,0.1,0.7,0.3,0.9,0.6c0.2,0.3,0.4,0.7,0.4,1.1
			c0,0.5-0.2,0.9-0.5,1.2c-0.2,0.2-0.5,0.4-1,0.5l1.6,2.3c0.2,0.3,0.4,0.5,0.4,0.5c0.1,0.1,0.3,0.2,0.5,0.2v0.2h-2.1l-2.2-3H124.7z
			 M124.7,62.8v2.9h0.3c0.5,0,0.8,0,1-0.1c0.2-0.1,0.4-0.2,0.5-0.5c0.1-0.2,0.2-0.5,0.2-0.9c0-0.5-0.1-0.9-0.4-1.1s-0.6-0.4-1.2-0.4
			H124.7z"/>
		<path class="st1" d="M130.5,67.6c0.2,0,0.4,0.1,0.6,0.2s0.2,0.4,0.2,0.6c0,0.2-0.1,0.4-0.2,0.6c-0.2,0.2-0.4,0.2-0.6,0.2
			s-0.4-0.1-0.6-0.2c-0.2-0.2-0.2-0.4-0.2-0.6c0-0.2,0.1-0.4,0.2-0.6S130.3,67.6,130.5,67.6z"/>
		<path class="st1" d="M136.6,69.2c0.2,0.4,0.4,0.8,0.7,1c0.3,0.2,0.7,0.3,1.2,0.3c0.1,0,0.3,0,0.4,0v0.3c-0.5,0.1-0.9,0.2-1.3,0.2
			c-0.6,0-1.2-0.1-1.6-0.4s-0.8-0.7-1.1-1.3c-0.8-0.2-1.5-0.6-2-1.2c-0.5-0.6-0.7-1.4-0.7-2.2c0-1,0.3-1.8,1-2.5
			c0.7-0.7,1.5-1,2.6-1c1,0,1.9,0.3,2.5,1c0.7,0.7,1,1.5,1,2.5c0,0.9-0.3,1.6-0.8,2.3C138,68.7,137.4,69.1,136.6,69.2z M135.7,62.7
			c-0.6,0-1,0.3-1.4,0.9c-0.3,0.5-0.4,1.3-0.4,2.2c0,1.1,0.2,2,0.6,2.5c0.3,0.4,0.7,0.6,1.2,0.6c0.5,0,0.9-0.2,1.2-0.6
			c0.4-0.5,0.6-1.4,0.6-2.4c0-1.1-0.1-1.8-0.4-2.3C136.8,63,136.4,62.7,135.7,62.7z"/>
	</g>
</g>
</svg>
