<?xml version="1.0" encoding="utf-8"?>
<!-- Generator: Adobe Illustrator 24.0.0, SVG Export Plug-In . SVG Version: 6.00 Build 0)  -->
<svg version="1.1" id="Capa_1" xmlns="http://www.w3.org/2000/svg" xmlns:xlink="http://www.w3.org/1999/xlink" x="0px" y="0px"
	 viewBox="0 0 254.6 111.3" style="enable-background:new 0 0 254.6 111.3;" xml:space="preserve">
<style type="text/css">
	.st0{fill:#FFFFFF;}
</style>
<g>
	<polygon class="st0" points="82.3,91 93.3,91 93.3,40.7 104.2,40.7 104.2,36.2 70.7,36.2 70.7,40.9 82.3,40.9 	"/>
	<path class="st0" d="M122.9,91h26.2v-3.5h-21.6c0,0-4,0.2-4-4v-18h21.1V61h-21V44.1c0,0,0-4,5.2-4H149v-3.9h-24.9
		c0,0-10.2-0.9-10.2,10.5v35.4C114,82.1,112.7,91,122.9,91z"/>
	<polygon class="st0" points="173.1,65.1 173.1,0 161.1,0 161.1,91 173.1,91 	"/>
	<rect y="97.8" class="st0" width="94.3" height="2.3"/>
	<rect x="127.7" y="97.8" class="st0" width="126.9" height="2.3"/>
	<polygon class="st0" points="106.2,111.3 134,111.3 98.5,93.9 	"/>
	<path class="st0" d="M15.6,69.7h28.1L52.5,91h15.3L33,6.6L0.7,91H7L15.6,69.7z M29.4,34.7l12.2,30.4H17.4L29.4,34.7z"/>
	<path class="st0" d="M211.8,91l4.9-17.4h20.7l5.2,17.4h11.9L239,40.3c0,0-1.6-5.6-8.7-5.6c0,0-9.8,0.4-10,8.9l-12.7,45.1h-1.5
		L183.9,59l19-22.9h-7.2l-22.7,29L193.5,91H211.8z M225.3,43.7c2-4.1,3.9,0,3.9,0l7.6,25.2h-18.4L225.3,43.7z"/>
</g>
</svg>
