<?xml version="1.0" encoding="utf-8"?>
<!-- Generator: Adobe Illustrator 24.0.0, SVG Export Plug-In . SVG Version: 6.00 Build 0)  -->
<svg version="1.1" id="Capa_1" xmlns="http://www.w3.org/2000/svg" xmlns:xlink="http://www.w3.org/1999/xlink" x="0px" y="0px"
	 viewBox="0 0 2427.8 803.7" style="enable-background:new 0 0 2427.8 803.7;" xml:space="preserve">
<style type="text/css">
	.st0{fill:none;stroke:#FFFFFF;stroke-width:2.594;stroke-miterlimit:33.89;}
	.st1{fill-rule:evenodd;clip-rule:evenodd;fill:#FFFFFF;}
</style>
<path class="st0" d="M1416.2,1.8h1010.3v373.6H1416.2V1.8z M1416.2,264.5h1010.3 M2426.5,197.6H1416.2 M1416.2,151.8h1010.3
	 M2426.5,114.5H1416.2 M1416.2,84.9h1010.3 M2426.5,60.5H1416.2 M1416.2,41h1010.3 M2426.5,21.4H1416.2 M1720.3,0.3v375.1
	 M1899.3,375.4V0.3 M2026.2,0.3v375.1 M2123.9,375.4V0.3 M2203.4,0.3v375.1 M2270.4,375.4V0.3 M2328.8,0.3v375.1 M2382.5,375.4V0.3"
	/>
<path class="st1" d="M244.9,84.6l-82.1,147.8h125.4c3.7,0,3.7-4.1,3.7-7.4V63.5h-15.2C259.7,63.5,250.1,73.5,244.9,84.6L244.9,84.6z
	 M195,35.4L0,375.8h77.3l48.1-79.1h128.7l32.2-56.5c0-4.1,5.6-5.9,5.6,3.3v132.3h70.3V5.1H244.9C223.5,5.1,204.6,18.4,195,35.4
	L195,35.4z M559,375.4h-66.4c-43.8,0-85.5-35.7-87.3-90.3V114.6c-1.8-2-1.8-3.9-3.6-6.2l-19.1-12.6h92.7v175.9
	c2.1,20.6,11.6,39.9,32.4,39.9h79.8c5.4,0,7.5,0,7.5-5.9V95.8h72.3v279.6H595v-52.7c0-7.5,0-7.5-5.7,0L559,375.4L559,375.4z
	 M989.6,21.7c-24.7,58.6,70.3,83.3,76.2,20.8C1069.7,1.2,1010.7-17.9,989.6,21.7z M995.5,114.9c0-3.9,0-3.9-3.9-6.2l-19.1-12.6h93.2
	v279.6h-70.3V114.9z M819.1,383.5c-92.9-1.8-170.9-103.8-129.1-205.8c36.3-72.4,113.9-106.4,189.4-78c6.7,1.5,8.1-0.7,8.1-5.9V24.3
	c-0.8-5.9-0.4-5.6-3.7-8.1L864.6,5.1h92.9v246.1C955.6,332.2,889.4,385.4,819.1,383.5L819.1,383.5z M887.5,253.4V113
	c0-4.1-2.2-4.1-5.9,0l-28.1,49.1c-55.1-26.6-96.9,30.3-96.9,73.9C758.4,335.9,883.8,343.6,887.5,253.4L887.5,253.4z M659.3,485.5
	v-53.2h-95l17.2,11.6c2.1,0,5.7,3.6,5.7,9.5v259.3h72.1V500.5l3.6-3.6h53c5.7,0,8,0,8-3.9l9.3-60.7h-37.8l-30.6,53.2
	C662.9,489.1,659.3,489.1,659.3,485.5L659.3,485.5z M1876.4,570.5c0-85-100.6-109.4-134.6-22.5
	C1711.7,669.2,1871.2,695.8,1876.4,570.5z M1956.3,570.5c0-79.5-68.1-145.2-147.6-145.2c-81.8,0-146.5,65.8-146.5,145.2
	c0,81.7,66.6,147.8,146.5,147.8C1886,718.3,1956.3,654.1,1956.3,570.5L1956.3,570.5z M1207.1,634.8l9.5,56.8
	c0.5,4.6,0.3,7.7-7.5,11.3c-45.3,24.9-92.7,21.1-139.8-5.4c-140.6-83.6-53.6-311,116.9-267.2c3.6,1.8,7.7,7.7,7.7,7.7l5.7,70.2
	c-14.7-9.5-37.6-15.4-56.6-15.4C1031.3,498.8,1065.5,718.2,1207.1,634.8L1207.1,634.8z"/>
<path class="st1" d="M792.4,546.1c-4.1-2.2-5.6-3.7-1.9-7.8c13.3-28.4,32.6-47.3,64.7-49.1c37.4-1.9,57,22.9,57,47.7
	c-4.4,5.6-4.4,9.2-17,9.2H792.4z M800.2,559.1c5.6,11.5,11.5,25.1,13.3,28.5c3.7,4,3.7,5.9,9.6,5.9h107.6c64.7,0,55.1-72.4,40-102.4
	c-15.2-28.4-51-54.3-78.1-62.1c-69.5-18.8-142.1,20.7-172.4,83.1c-37.7,113.5,30.3,198.8,131.3,206.2c68.1,0,98.4-15.1,157.2-49.1
	l-7.8-13.3l-9.2-18.9l-7.8-19.2c-47.4,24.7-70.3,43.6-138.4,38.1c-51-9.6-62.5-51.4-60.7-98.3c1.9-4.1,3.3-5.6,5.6-5.6
	C792.4,552,798.4,555.4,800.2,559.1L800.2,559.1z M1347.4,716.5c39.6,5.9,77.7,9.5,117.7,0c77.7-20.8,106.3-107.8,24.7-159
	c-20.9-19-60.8-36.5-72.1-58.6c-3.9-30.6,83.4-17.2,98.6-13.4l-9.5-58.6c-62.6-6.2-170.5-13.6-170.5,75.6
	c9.3,68.2,98.4,75.6,124.9,123.2c17.5,53.2-100.7,30.3-119.5,24.7L1347.4,716.5L1347.4,716.5z M422.5,492.9
	c49.2,0,72.1,45.4,72.1,81.7c0,45.1-43.7,98.3-98.4,71.7l-30.3,49.5c-3.7,1.9-3.7,1.9-3.7,0V553.5
	C362.2,517.3,390.3,495.1,422.5,492.9z M422.5,425.3c89.5-1.9,151.7,80.9,150.2,150.8c-1.9,87.2-87.3,170.7-199,136.7
	c-7.8-5.6-11.5-1.9-11.5,1.9V783c1.9,7.4,0,5.2,3.7,9.6l18.9,11.1h-92.9V559.1C293.7,485.5,350.7,425.3,422.5,425.3z M1237.8,356.9
	c-25,58.6,56.6,83.3,73.6,26.5C1319,340,1258.4,321.2,1237.8,356.9z M1567.5,358.4c-26.5,66.6,73.9,85.7,73.9,13.6
	C1641.4,339.9,1586.3,315.5,1567.5,358.4z"/>
<path class="st1" d="M1571.5,712.8V449.4c-2.1-3.9-2.1-3.9-5.7-5.4l-17.2-9.8h92.9v278.6H1571.5L1571.5,712.8z M1237.8,712.8V449.4
	c-2.1-3.9-2.1-3.9-5.7-5.4l-17.2-9.8h92.9v278.6H1237.8L1237.8,712.8z M2237.1,691.7c1.8,5.9,1.8,5.9,5.7,9.5l18.5,11.3H2167V532.5
	c0-17-13.4-35.7-36.6-35.7h-79.3c-1.8,0-1.8-1.8-5.9,5.7v210.1h-69.8V432.2h69.8v53.2c0,5.4,5.9,5.4,7.7,1.8l30.4-55h64.1
	c51.5,0,89.6,38.1,89.6,88.8L2237.1,691.7L2237.1,691.7L2237.1,691.7z M1318.9,356.9c-30.3-60.2-102.1-28.5-98.8,24.8
	c-150.2-5.9-188.3-238.4-26.3-287.9C1369.9,58,1442.1,274.1,1318.9,356.9z M1304.1,236.1c-4.1-81.3-102.9-121.2-135.8-24.8
	C1139.8,330.3,1298.1,358.8,1304.1,236.1z M2375.1,437.8c8.6,0,16.6,1.9,25.1,6.1c8,4.3,14.1,11,18.4,19c4.9,8,7.4,16.5,7.4,25.7
	c0,8.6-2.5,17.1-6.8,25.1c-4.7,7.8-11.2,14.3-19,19c-8,4.3-16.6,6.7-25.1,6.7s-17.2-2.4-25.1-6.7c-7.8-4.7-14.3-11.2-19-19
	c-4.3-8-6.7-16.5-6.7-25.1c0-9.2,2.5-17.8,7.4-25.7c4.3-8,10.4-14.7,18.4-19C2358.5,439.7,2366.5,437.8,2375.1,437.8z M2375.1,447.7
	c-6.8,0.1-13.6,1.8-19.6,4.9c-6.7,3.7-11.6,8.6-15.3,15.3c-3.6,6.4-5.5,13.5-5.5,20.8c0,6.7,1.8,13.5,5.5,20.2
	c3.7,6.1,8.6,11.6,14.7,15.3c6.7,3.7,13.5,5.5,20.2,5.5c6.7,0,13.5-1.8,20.2-5.5c6.3-3.8,11.5-9.1,15.3-15.3
	c3.1-6.7,4.9-13.5,4.9-20.2c0-7.3-1.9-14.1-5.5-20.8c-3.7-6.7-8.6-11.6-14.7-15.3C2388.6,449.5,2381.8,447.7,2375.1,447.7z
	 M2352.4,515.7v-53.9h27.6c3.7,0.6,6.7,1.2,8.6,2.4c1.8,1.2,3.7,2.5,4.9,4.9c1.2,2.5,1.9,4.9,1.9,8c0,3.7-1.2,7.3-3.7,9.8
	c-2.5,3.1-6.2,4.3-10.4,4.9c1.2,0.6,2.5,1.8,3.7,2.4c0.6,0.6,1.9,1.9,3.7,4.3c0.6,0,1.8,2.5,3.7,6.1l6.7,11h-13.5l-4.9-8.6
	c-3.1-6.1-5.5-9.8-6.8-11c-1.8-1.9-4.9-2.5-8-2.5h-2.5v22.1L2352.4,515.7L2352.4,515.7L2352.4,515.7z M2363.4,485h4.3
	c6.1,0,9.8,0,11.1-0.6c1.9-0.6,3.1-1.2,3.7-2.4c1.2-1.2,1.2-3.1,1.2-4.3c0-1.8,0-3.1-1.2-4.3c-0.6-1.2-1.8-1.8-3.7-2.5
	c-1.2-0.6-4.9-0.6-11.1-0.6h-4.3V485L2363.4,485z"/>
</svg>
