<?xml version="1.0" encoding="utf-8"?>
<!-- Generator: Adobe Illustrator 24.0.0, SVG Export Plug-In . SVG Version: 6.00 Build 0)  -->
<svg version="1.1" id="Capa_1" xmlns="http://www.w3.org/2000/svg" xmlns:xlink="http://www.w3.org/1999/xlink" x="0px" y="0px"
	 viewBox="0 0 150 45" style="enable-background:new 0 0 150 45;" xml:space="preserve">
<style type="text/css">
	.st0{fill:#FFFFFF;}
</style>
<g>
	<path class="st0" d="M28.6,0.5V18c0,0,0.5,4.2,5.9,4h22c0,0,2.4,0.1,3.7-2.7L70.8,5.7c0,0-0.1-1.4,2.6-1.5h4.5c0,0,1.3-0.2,1.3,2.2
		v11.5c0,0,0.2,4.3,3.8,4.2h33.7h1.7c0,0,3.1,0.3,3.1-3.7V0.5h-9.7c0,0-1.5,0.1-1.2,1.6v14.2c0,0,0.1,2.3-1.9,2.3H91.5
		c0,0-1.3-0.3-1.3-2.7V6c0,0,1-5.5-4.1-5.5H63.4c0,0-2.7-0.3-4.2,2.1L48.1,17.8h-7.9V0.5L28.6,0.5z"/>
	<path class="st0" d="M28.6,44.5V27c0,0,0.5-4.2,5.9-4h22c0,0,2.4-0.1,3.7,2.7l10.5,13.6c0,0-0.1,1.4,2.6,1.5h4.5
		c0,0,1.3,0.2,1.3-2.2V27.2c0,0,0.2-4.3,3.8-4.2h33.7h1.7c0,0,3.1-0.3,3.1,3.7v17.8h-9.7c0,0-1.5-0.1-1.2-1.6V28.7
		c0,0,0.1-2.3-1.9-2.3H91.5c0,0-1.3,0.3-1.3,2.7V39c0,0,1,5.5-4.1,5.5H63.4c0,0-2.7,0.3-4.2-2.1L48.1,27.2h-7.9v17.3L28.6,44.5z"/>
	<polyline class="st0" points="40.2,0.5 28.6,0.5 28.6,18 	"/>
</g>
</svg>
