<?xml version="1.0" encoding="utf-8"?>
<!-- Generator: Adobe Illustrator 24.0.0, SVG Export Plug-In . SVG Version: 6.00 Build 0)  -->
<svg version="1.1" id="Capa_1" xmlns="http://www.w3.org/2000/svg" xmlns:xlink="http://www.w3.org/1999/xlink" x="0px" y="0px"
	 viewBox="0 0 168.9 26.7" style="enable-background:new 0 0 168.9 26.7;" xml:space="preserve">
<style type="text/css">
	.st0{fill:#FFFFFF;}
</style>
<polygon class="st0" points="58.2,0 58.2,1.8 60.7,1.8 60.7,10.8 63,10.8 63,1.8 65.5,1.8 65.5,0 "/>
<polygon class="st0" points="66.5,0 66.5,10.8 72.5,10.8 72.5,9.1 68.8,9.1 68.8,6 72.1,6 72.1,4.3 68.8,4.3 68.8,1.7 72.4,1.7 
	72.4,0 "/>
<polygon class="st0" points="74,0 74,10.8 79.7,10.8 79.7,9 76.3,9 76.3,0 "/>
<polygon class="st0" points="80.6,0 80.6,10.8 86.7,10.8 86.7,9.1 82.9,9.1 82.9,6 86.3,6 86.3,4.3 82.9,4.3 82.9,1.7 86.5,1.7 
	86.5,0 "/>
<path class="st0" d="M88.2,0h3.8c3,0,3.5,2,3.5,5.3c0,1.7,0.3,5.5-3.6,5.5h-3.7V0z M90.4,9.1h1.1c1.4,0,1.7-1,1.7-3.7
	c0-2,0-3.7-1.6-3.7h-1.2V9.1z"/>
<polygon class="st0" points="99.3,7.1 96.4,0 98.9,0 100.5,4.6 102.2,0 104.5,0 101.5,7.1 101.5,10.8 99.3,10.8 "/>
<polygon class="st0" points="105.6,10.8 105.6,0 108.7,0 111.5,7.5 111.6,7.5 111.6,0 113.7,0 113.7,10.8 110.7,10.8 107.7,2.9 
	107.7,2.9 107.7,10.8 "/>
<polygon class="st0" points="115.6,10.8 115.6,0 121.5,0 121.5,1.7 117.8,1.7 117.8,4.3 121.2,4.3 121.2,6 117.8,6 117.8,9.1 
	121.6,9.1 121.6,10.8 "/>
<polygon class="st0" points="126.3,10.8 126.3,0.6 127.6,0.6 127.6,9.7 131.3,9.7 131.3,10.8 "/>
<polygon class="st0" points="132.4,10.8 132.4,0.6 137.6,0.6 137.6,1.8 133.7,1.8 133.7,5 137.4,5 137.4,6.2 133.7,6.2 133.7,9.7 
	137.7,9.7 137.7,10.8 "/>
<path class="st0" d="M143.8,3.4c0.1-0.5,0-1-0.3-1.5c-0.3-0.3-0.7-0.4-1.1-0.4c-0.6-0.1-1.2,0.2-1.5,0.8c0,0.1-0.3,0.4-0.3,2.1v2.7
	c0,2.5,0.8,2.8,1.8,2.8c0.4,0,1.6-0.1,1.6-2.1h1.3c0.1,3.2-2.2,3.2-2.9,3.2c-1.3,0-3.2-0.1-3.2-4V4.1c0-2.9,1.3-3.7,3.3-3.7
	s2.8,1,2.7,3L143.8,3.4z"/>
<path class="st0" d="M148.2,6.1v4.7H147V0.6h3.5c1.3-0.1,2.4,0.9,2.4,2.1c0,0.1,0,0.3,0,0.4c0.1,1.2-0.8,2.2-1.9,2.3l0,0
	c1.2,0.2,1.6,0.6,1.7,2.6c0,0.9,0.2,1.8,0.4,2.7h-1.4c-0.3-1.1-0.4-2.2-0.4-3.4c0-0.7-0.6-1.3-1.4-1.3c-0.1,0-0.1,0-0.2,0L148.2,6.1
	z M148.2,5h1.9c0.9,0,1.4-0.8,1.4-1.7c0.1-0.8-0.4-1.4-1.2-1.5c-0.1,0-0.1,0-0.2,0h-2L148.2,5z"/>
<path class="st0" d="M154.6,7.1V3.8c0-2,1-3.3,3.2-3.3s3.2,1.3,3.2,3.3v3.3c0,2.8-1,3.9-3.2,3.9S154.6,9.9,154.6,7.1 M159.7,7.1V3.7
	c0-2.1-1.5-2.2-1.9-2.2s-1.9,0.1-1.9,2.2v3.4c0,2.2,0.6,2.8,1.9,2.8S159.7,9.4,159.7,7.1"/>
<polygon class="st0" points="167.6,0.6 168.9,0.6 166.1,6.9 166.1,10.8 164.8,10.8 164.8,6.9 162.1,0.6 163.5,0.6 165.5,5.6 "/>
<polygon class="st0" points="66.8,13.8 66.8,14.5 61.5,14.5 61.5,17.7 66.4,17.7 66.4,18.4 61.5,18.4 61.5,21.9 66.8,21.9 
	66.8,22.6 60.7,22.6 60.7,13.8 "/>
<polygon class="st0" points="68,16.2 70,21.8 70,21.8 72,16.2 72.8,16.2 70.4,22.6 69.6,22.6 67.1,16.2 "/>
<path class="st0" d="M74.1,20.5c0.1,0.3,0.2,0.6,0.4,0.8c0.2,0.2,0.4,0.4,0.7,0.6c0.3,0.2,0.7,0.2,1,0.2c0.5,0,1-0.1,1.3-0.5
	c0.3-0.3,0.6-0.7,0.7-1.2h0.8c-0.1,0.6-0.4,1.2-0.9,1.7c-0.5,0.4-1.2,0.6-1.9,0.6c-0.4,0-0.9-0.1-1.3-0.3c-0.4-0.2-0.7-0.4-0.9-0.7
	c-0.2-0.3-0.4-0.7-0.5-1.1c-0.1-0.4-0.2-0.9-0.2-1.3c0-0.4,0.1-0.8,0.2-1.2c0.1-0.4,0.3-0.8,0.5-1.1c0.2-0.3,0.5-0.6,0.9-0.8
	c0.4-0.2,0.8-0.3,1.3-0.3c0.5,0,0.9,0.1,1.3,0.3c0.4,0.2,0.7,0.5,0.9,0.8c0.2,0.3,0.4,0.7,0.5,1.1c0.1,0.4,0.1,0.9,0.1,1.3h-5
	C74,19.9,74,20.2,74.1,20.5 M78,18.1c-0.1-0.3-0.2-0.5-0.4-0.7c-0.2-0.2-0.4-0.4-0.6-0.5c-0.3-0.1-0.5-0.2-0.8-0.2
	c-0.3,0-0.6,0.1-0.8,0.2c-0.2,0.1-0.5,0.3-0.6,0.5c-0.2,0.2-0.3,0.5-0.4,0.7C74.1,18.4,74,18.7,74,19h4.1
	C78.1,18.7,78.1,18.4,78,18.1"/>
<path class="st0" d="M80.7,16.2v1.5l0,0c0.2-0.5,0.5-0.9,0.9-1.2c0.4-0.3,1-0.4,1.5-0.4v0.8c-0.3,0-0.7,0-1,0.1
	c-0.3,0.1-0.5,0.3-0.7,0.5c-0.2,0.2-0.4,0.5-0.5,0.7c-0.1,0.3-0.2,0.6-0.2,0.9v3.4H80v-6.4H80.7z"/>
<path class="st0" d="M84,16.2l2.1,5.4l2-5.4h0.8L86,23.5c-0.1,0.2-0.2,0.5-0.3,0.7c-0.1,0.2-0.2,0.3-0.3,0.4
	c-0.1,0.1-0.3,0.2-0.4,0.2c-0.2,0.1-0.4,0.1-0.6,0.1h-0.4c-0.1,0-0.2,0-0.2,0v-0.7H84c0.1,0,0.2,0,0.3,0c0.1,0,0.3,0,0.4-0.1
	c0.1,0,0.2-0.1,0.3-0.2c0.1-0.1,0.2-0.2,0.2-0.3l0.2-0.4l0.3-0.7l-2.6-6.4L84,16.2z"/>
<polygon class="st0" points="89.7,16.2 91.4,21.7 91.4,21.7 92.9,16.2 93.8,16.2 95.4,21.7 95.4,21.7 97,16.2 97.9,16.2 95.8,22.6 
	95,22.6 93.4,17.2 93.4,17.2 91.8,22.6 91,22.6 88.9,16.2 "/>
<path class="st0" d="M99.5,13.8v3.5l0,0c0.1-0.4,0.4-0.7,0.8-0.9c0.4-0.2,0.8-0.4,1.3-0.4c0.4,0,0.8,0,1.1,0.2
	c0.3,0.1,0.5,0.3,0.7,0.5c0.2,0.2,0.3,0.5,0.4,0.8c0.1,0.3,0.1,0.7,0.1,1v4.1h-0.8v-4c0-0.3,0-0.5-0.1-0.8c0-0.2-0.1-0.4-0.3-0.6
	c-0.1-0.2-0.3-0.3-0.5-0.4c-0.2-0.1-0.5-0.2-0.8-0.1c-0.3,0-0.6,0.1-0.8,0.2c-0.2,0.1-0.4,0.3-0.6,0.5c-0.2,0.2-0.3,0.4-0.4,0.7
	c-0.1,0.3-0.2,0.6-0.2,0.9v3.7h-0.8v-8.8H99.5z"/>
<path class="st0" d="M105.9,20.5c0.1,0.3,0.2,0.6,0.4,0.8c0.2,0.2,0.4,0.4,0.7,0.6c0.3,0.2,0.6,0.2,0.9,0.2c0.5,0,1-0.1,1.3-0.5
	c0.3-0.3,0.6-0.7,0.7-1.2h0.8c-0.1,0.6-0.4,1.2-0.9,1.7c-0.5,0.4-1.2,0.6-1.9,0.6c-0.5,0-0.9-0.1-1.3-0.3c-0.4-0.2-0.7-0.4-0.9-0.7
	c-0.2-0.3-0.4-0.7-0.5-1.1c-0.1-0.4-0.2-0.9-0.2-1.3c0-0.4,0.1-0.8,0.2-1.2c0.1-0.4,0.3-0.8,0.5-1.1c0.2-0.3,0.5-0.6,0.9-0.8
	c0.4-0.2,0.9-0.3,1.3-0.3c0.5,0,0.9,0.1,1.3,0.3c0.4,0.2,0.7,0.5,0.9,0.8c0.2,0.3,0.4,0.7,0.5,1.1c0.1,0.4,0.1,0.9,0.1,1.3h-4.9
	C105.8,19.9,105.8,20.2,105.9,20.5 M109.7,18.1c-0.1-0.3-0.2-0.5-0.4-0.7c-0.2-0.2-0.4-0.4-0.6-0.5c-0.3-0.1-0.5-0.2-0.8-0.2
	c-0.3,0-0.6,0.1-0.8,0.2c-0.2,0.1-0.5,0.3-0.6,0.5c-0.2,0.2-0.3,0.5-0.4,0.7c-0.1,0.3-0.2,0.6-0.2,0.9h4.1
	C109.9,18.7,109.8,18.4,109.7,18.1"/>
<path class="st0" d="M112.4,16.2v1.5l0,0c0.2-0.5,0.5-0.9,0.9-1.2c0.4-0.3,1-0.4,1.5-0.4v0.8c-0.3,0-0.7,0-1,0.1
	c-0.6,0.2-1,0.6-1.2,1.2c-0.1,0.3-0.2,0.6-0.2,0.9v3.4h-0.8v-6.4H112.4z"/>
<path class="st0" d="M116,20.5c0.1,0.3,0.2,0.6,0.4,0.8c0.2,0.2,0.4,0.4,0.7,0.6c0.3,0.2,0.7,0.2,1,0.2c0.5,0,1-0.1,1.3-0.5
	c0.3-0.3,0.6-0.7,0.7-1.2h0.8c-0.1,0.6-0.4,1.2-0.9,1.7c-0.5,0.4-1.2,0.6-1.9,0.6c-0.5,0-0.9-0.1-1.3-0.3c-0.4-0.2-0.7-0.4-0.9-0.7
	c-0.2-0.3-0.4-0.7-0.5-1.1c-0.1-0.4-0.2-0.9-0.2-1.3c0-0.4,0.1-0.8,0.2-1.2c0.1-0.4,0.3-0.8,0.5-1.1c0.2-0.3,0.5-0.6,0.9-0.8
	c0.4-0.2,0.9-0.3,1.3-0.3c0.5,0,0.9,0.1,1.3,0.3c0.4,0.2,0.7,0.5,0.9,0.8c0.2,0.3,0.4,0.7,0.5,1.1c0.1,0.4,0.1,0.9,0.1,1.3h-4.9
	C115.9,19.9,116,20.2,116,20.5 M119.9,18.1c-0.1-0.3-0.2-0.5-0.4-0.7c-0.2-0.2-0.4-0.4-0.6-0.5c-0.3-0.1-0.5-0.2-0.8-0.2
	c-0.3,0-0.6,0.1-0.8,0.2c-0.2,0.1-0.5,0.3-0.6,0.5c-0.2,0.2-0.3,0.5-0.4,0.7c-0.1,0.3-0.2,0.6-0.2,0.9h4.1
	C120,18.7,119.9,18.4,119.9,18.1"/>
<path class="st0" d="M121.1,16.2h1.5l1.7,4.8l0,0l1.6-4.8h1.5l-2.5,6.7c-0.1,0.3-0.2,0.6-0.3,0.8c-0.1,0.3-0.2,0.5-0.4,0.7
	c-0.2,0.2-0.4,0.4-0.6,0.5c-0.3,0.1-0.6,0.2-0.9,0.2c-0.3,0-0.7,0-1-0.1v-1.2l0.3,0.1c0.1,0,0.2,0,0.3,0c0.1,0,0.3,0,0.4-0.1
	c0.1,0,0.2-0.1,0.3-0.2c0.1-0.1,0.1-0.2,0.2-0.3c0.1-0.1,0.1-0.2,0.1-0.4l0.2-0.5L121.1,16.2z"/>
<path class="st0" d="M131.1,22.8c-0.5,0-0.9-0.1-1.4-0.3c-0.4-0.2-0.7-0.4-1-0.7c-0.3-0.3-0.5-0.7-0.6-1.1c-0.1-0.4-0.2-0.9-0.2-1.4
	c0-0.5,0-0.9,0.2-1.4c0.1-0.4,0.4-0.8,0.6-1.1c0.3-0.3,0.6-0.5,1-0.7c0.9-0.3,1.9-0.3,2.7,0c0.4,0.2,0.7,0.4,1,0.7
	c0.3,0.3,0.5,0.7,0.6,1.1c0.2,0.4,0.2,0.9,0.2,1.4c0,0.5-0.1,0.9-0.2,1.4c-0.1,0.4-0.3,0.8-0.6,1.1c-0.3,0.3-0.6,0.5-1,0.7
	C132,22.6,131.6,22.7,131.1,22.8 M131.1,21.6c0.3,0,0.6-0.1,0.8-0.2c0.2-0.1,0.4-0.3,0.6-0.5c0.2-0.2,0.3-0.5,0.3-0.7
	c0.1-0.3,0.1-0.5,0.1-0.8c0-0.3,0-0.6-0.1-0.8c-0.1-0.3-0.2-0.5-0.3-0.7c-0.2-0.2-0.3-0.4-0.6-0.5c-0.5-0.3-1.1-0.3-1.6,0
	c-0.2,0.1-0.4,0.3-0.6,0.5c-0.2,0.2-0.3,0.5-0.3,0.7c-0.1,0.3-0.1,0.5-0.1,0.8c0,0.3,0,0.6,0.1,0.8c0.1,0.3,0.2,0.5,0.3,0.7
	c0.1,0.2,0.3,0.4,0.6,0.5C130.5,21.6,130.8,21.6,131.1,21.6"/>
<path class="st0" d="M141.1,22.6h-1.4v-0.9l0,0c-0.2,0.3-0.4,0.6-0.8,0.8c-0.3,0.2-0.6,0.3-1,0.3c-0.7,0.1-1.3-0.2-1.8-0.6
	c-0.4-0.5-0.6-1.2-0.6-1.9v-4.1h1.4v3.9c0,0.4,0.1,0.8,0.3,1.2c0.2,0.2,0.6,0.4,0.9,0.4c0.3,0,0.5,0,0.8-0.1
	c0.2-0.1,0.3-0.2,0.5-0.4c0.1-0.2,0.2-0.3,0.3-0.5c0.1-0.2,0.1-0.5,0.1-0.7v-3.7h1.4L141.1,22.6z"/>
<rect x="142.6" y="13.8" class="st0" width="0.8" height="8.8"/>
<path class="st0" d="M148.8,16.3c0.4,0.2,0.7,0.4,0.9,0.7c0.3,0.3,0.5,0.7,0.6,1.1c0.3,0.8,0.3,1.8,0,2.6c-0.1,0.4-0.3,0.8-0.6,1.1
	c-0.3,0.3-0.6,0.6-0.9,0.7c-0.4,0.2-0.8,0.3-1.3,0.3c-0.4,0-0.9-0.1-1.3-0.3c-0.4-0.2-0.7-0.4-0.9-0.7c-0.3-0.3-0.5-0.7-0.6-1.1
	c-0.3-0.8-0.3-1.8,0-2.6c0.1-0.4,0.3-0.8,0.6-1.1c0.3-0.3,0.6-0.6,0.9-0.7c0.4-0.2,0.8-0.3,1.3-0.3C148,16,148.4,16.1,148.8,16.3
	 M146.6,16.9c-0.3,0.1-0.5,0.4-0.7,0.6c-0.2,0.3-0.3,0.6-0.4,0.9c-0.1,0.3-0.2,0.7-0.1,1c0,0.3,0.1,0.7,0.1,1
	c0.1,0.3,0.2,0.6,0.4,0.9c0.2,0.3,0.4,0.5,0.7,0.6c0.3,0.2,0.7,0.2,1,0.2c0.3,0,0.7-0.1,1-0.2c0.3-0.2,0.5-0.4,0.7-0.6
	c0.2-0.3,0.3-0.6,0.4-0.9c0.1-0.3,0.1-0.7,0.1-1c0-0.3,0-0.7-0.1-1c-0.1-0.3-0.2-0.6-0.4-0.9c-0.2-0.3-0.4-0.5-0.7-0.6
	c-0.3-0.2-0.7-0.2-1-0.2C147.2,16.7,146.9,16.8,146.6,16.9"/>
<path class="st0" d="M155.7,16.3c0.4,0.2,0.7,0.4,1,0.7c0.3,0.3,0.5,0.7,0.6,1.1c0.3,0.8,0.3,1.8,0,2.6c-0.1,0.4-0.3,0.8-0.6,1.1
	c-0.3,0.3-0.6,0.6-1,0.7c-0.4,0.2-0.8,0.3-1.3,0.3c-0.4,0-0.9-0.1-1.3-0.3c-0.4-0.2-0.7-0.4-1-0.7c-0.3-0.3-0.5-0.7-0.6-1.1
	c-0.3-0.8-0.3-1.8,0-2.6c0.1-0.4,0.3-0.8,0.6-1.1c0.3-0.3,0.6-0.6,1-0.7c0.4-0.2,0.8-0.3,1.3-0.3C154.9,16,155.3,16.1,155.7,16.3
	 M153.4,16.9c-0.3,0.1-0.5,0.4-0.7,0.6c-0.2,0.3-0.3,0.6-0.4,0.9c-0.1,0.3-0.2,0.7-0.1,1c0,0.3,0.1,0.7,0.1,1
	c0.1,0.3,0.2,0.6,0.4,0.9c0.2,0.3,0.4,0.5,0.7,0.6c0.3,0.2,0.7,0.2,1,0.2c0.3,0,0.7-0.1,1-0.2c0.3-0.2,0.5-0.4,0.7-0.6
	c0.2-0.3,0.3-0.6,0.4-0.9c0.1-0.3,0.1-0.7,0.1-1c0-0.3,0-0.7-0.1-1c-0.1-0.3-0.2-0.6-0.4-0.9c-0.2-0.3-0.4-0.5-0.7-0.6
	c-0.3-0.2-0.7-0.2-1-0.2C154.1,16.7,153.7,16.8,153.4,16.9"/>
<polygon class="st0" points="159.4,13.8 159.4,19.3 162.9,16.2 163.9,16.2 161.2,18.6 164.1,22.6 163.1,22.6 160.6,19.1 159.4,20.2 
	159.4,22.6 158.6,22.6 158.6,13.8 "/>
<polygon class="st0" points="163.2,13.7 164.6,13.7 164.6,14 164.1,14 164.1,15.4 163.8,15.4 163.8,14 163.2,14 "/>
<polygon class="st0" points="164.8,13.7 165.3,13.7 165.8,15.1 165.8,15.1 166.2,13.7 166.6,13.7 166.6,15.4 166.4,15.4 166.4,14.1 
	166.4,14.1 165.9,15.4 165.6,15.4 165.1,14.1 165.1,14.1 165.1,15.4 164.8,15.4 "/>
<polygon class="st0" points="28.9,0.3 44.1,0.3 55.1,11 39.5,11 "/>
<polygon class="st0" points="26,0.3 10.7,0.3 0,11 15.3,11 "/>
<polygon class="st0" points="28,1.2 38.6,11.8 38.6,26.7 28,16.3 "/>
<polygon class="st0" points="26.9,1.2 26.9,16.3 16,26.7 16,12.1 "/>
</svg>
