<?xml version="1.0" encoding="utf-8"?>
<!-- Generator: Adobe Illustrator 24.0.0, SVG Export Plug-In . SVG Version: 6.00 Build 0)  -->
<svg version="1.1" id="Capa_1" xmlns="http://www.w3.org/2000/svg" xmlns:xlink="http://www.w3.org/1999/xlink" x="0px" y="0px"
	 viewBox="0 0 254.6 111.3" style="enable-background:new 0 0 254.6 111.3;" xml:space="preserve">
<style type="text/css">
	.st0{fill:#FFFFFF;}
	.st1{fill:none;stroke:#FFFFFF;stroke-width:7;stroke-miterlimit:10;}
</style>
<image style="overflow:visible;opacity:0.3;" width="991" height="610" xlink:href="C:\Users\Mariano Seijas\Downloads\Screenshot_6.png"  transform="matrix(0.75 0 0 0.75 608.3596 -507.5763)">
</image>
<g>
	<g>
		<path class="st0" d="M6.6,70c-0.8,0-2.2-0.2-3.6-1.2c-1.7-1.3-2.7-3.4-3-6.4l2.8-0.3c0.2,2.1,0.9,3.6,1.9,4.4
			c1,0.8,2.1,0.7,2.2,0.7l0.1,0l0.1,0h16.5c1.6,0,2.9-0.4,3.8-1.3c1.5-1.5,1.5-3.8,1.5-3.8l0-0.1l0-0.1c0.3-4-4-4.9-4.7-5l-18.4,0
			c-3.1-0.2-5.2-2.5-5.6-6.4c-0.3-2.4,0.3-4.3,1.6-5.8c2.8-3.1,8.4-3.1,12.5-3c0.4,0,0.8,0,1.2,0h6.5c6.5-0.2,8.6,4.3,8.8,6.6
			l-2.8,0.2c0-0.4-0.5-4.3-6-4.1l0,0h-6.5c-0.4,0-0.8,0-1.2,0c-3.6,0-8.5-0.1-10.5,2.1c-0.8,0.9-1.1,2-0.9,3.6
			c0.3,2.5,1.3,3.8,3,3.9h18.5l0.1,0c2.7,0.4,7.6,2.6,7.2,8c0,0.5-0.1,3.5-2.3,5.7c-1.4,1.4-3.4,2.2-5.8,2.2H7.1C7,70,6.8,70,6.6,70
			z"/>
	</g>
	<g>
		<path class="st0" d="M60.9,70H43.1c-8.9,0-9.4-6.7-9.4-6.8l0-0.1V49.2c0-2,0.7-3.7,2-5c2.6-2.6,6.9-2.6,7.1-2.6h18.1
			c6.1,0,8,4.9,8.1,7.4l0,0.1l0,12.5C68.6,68,63.6,69.9,60.9,70L60.9,70z M36.5,63c0.1,0.5,0.6,4.2,6.6,4.2h17.7
			c0.6,0,5-0.5,5.3-5.6V49.2c0-0.6-0.5-4.8-5.4-4.8H42.7c0,0,0,0,0,0c-0.1,0-3.3,0-5.1,1.8c-0.8,0.8-1.1,1.7-1.1,3V63z"/>
	</g>
	<g>
		<path class="st0" d="M137.9,70h-17.8c-8.9,0-9.4-6.7-9.4-6.8l0-0.1V49.2c0-2,0.7-3.7,2-5c2.6-2.6,6.9-2.6,7.1-2.6h18.1
			c6.1,0,8,4.9,8.1,7.4l0,0.1l0,12.5C145.6,68,140.5,69.9,137.9,70L137.9,70z M113.4,63c0.1,0.5,0.6,4.2,6.6,4.2h17.7
			c0.6,0,5-0.5,5.3-5.6V49.2c0-0.6-0.5-4.8-5.4-4.8h-18.1c0,0,0,0,0,0c-0.1,0-3.3,0-5.1,1.8c-0.8,0.8-1.1,1.7-1.1,3V63z"/>
	</g>
	<g>
		<polygon class="st0" points="107.2,70 102.3,70 76.1,44.5 74.7,44.5 74.7,69.9 71.9,69.9 71.9,41.7 77.2,41.7 103.5,67.2 
			104.4,67.2 104.4,41.6 107.2,41.6 		"/>
	</g>
	<g>
		<polygon class="st0" points="216.9,70 212.1,70 185.8,44.5 184.5,44.5 184.5,69.9 181.7,69.9 181.7,41.7 187,41.7 213.2,67.2 
			214.2,67.2 214.2,41.6 216.9,41.6 		"/>
	</g>
	<g>
		<polygon class="st0" points="170.5,70 148.7,70 148.7,41.6 151.6,41.6 151.6,67.2 170.5,67.2 		"/>
	</g>
	<g>
		<rect x="174.8" y="41.6" class="st0" width="2.8" height="28.3"/>
	</g>
	<g>
		<rect x="220.8" y="41.6" class="st0" width="2.8" height="28.3"/>
	</g>
	<g>
		<polygon class="st0" points="249.6,69.7 227.6,55.1 248.2,41.3 253.2,41.3 232.6,55.1 254.6,69.7 		"/>
	</g>
	<g>
		<rect x="222.2" y="53.7" class="st0" width="7.9" height="2.8"/>
	</g>
</g>
<polygon class="st1" points="570.1,926.4 883.4,572.1 1099,719.3 "/>
<g>
</g>
<g>
</g>
</svg>
