<?xml version="1.0" encoding="utf-8"?>
<!-- Generator: Adobe Illustrator 24.0.0, SVG Export Plug-In . SVG Version: 6.00 Build 0)  -->
<svg version="1.1" id="Capa_1" xmlns="http://www.w3.org/2000/svg" xmlns:xlink="http://www.w3.org/1999/xlink" x="0px" y="0px"
	 viewBox="0 0 254.6 111.3" style="enable-background:new 0 0 254.6 111.3;" xml:space="preserve">
<style type="text/css">
	.st0{fill:#FFFFFF;}
</style>
<g>
	<path class="st0" d="M34.4,29.7c1,2.4,1.3,4.9,1.8,7.4c0.4,1.8,0.7,3.7,1.1,5.5c0.6,2.6,1.1,5.2,1.7,7.8c0.4,1.9,0.8,3.8,1.2,5.7
		c0.5,2.6,1.1,5.1,1.7,7.7c0.3,1.2,0.7,2.4,1,3.7c0.1,0.3-0.3,0.7-0.5,0.9c-0.2,0.2-0.7,0.1-1,0.1c-3.4,0-6.7,0-10.1,0
		c-0.4,0-0.8,0-1.4-0.1c-0.4-1.9-0.7-3.8-1.2-5.7c-0.3-1.3-0.7-2.5-1-3.8c-0.2-1-0.4-2-0.6-2.9c-0.4-2.1-0.8-4.2-1.2-6.3
		c-0.5-2.2-1.1-4.3-1.6-6.4c-0.3-1.2-0.4-2.3-0.7-3.5c-0.3-1.5-0.8-3.1-1.1-4.6c-0.3-1.5-0.6-3.1-0.8-4.7c0.2-0.3,0.5-0.6,0.8-0.9
		C26.5,29.7,30.4,29.7,34.4,29.7z"/>
	<path class="st0" d="M18.6,29.7c0.7,1,1,2,1.1,3.2c0.1,1.3,0.6,2.5,0.9,3.7c0.2,0.9,0.5,1.8,0.6,2.8c0.3,1.3,0.4,2.6,0.7,3.9
		c0.3,1.3,0.7,2.5,1,3.8c0.2,1,0.4,2,0.6,3c0.2,1.3,0.4,2.5,0.7,3.8c0.3,1.3,0.7,2.5,1,3.8c0.2,0.9,0.4,1.8,0.6,2.7
		c0.2,1.2,0.4,2.3,0.7,3.5c0.3,1.2,0.6,2.4,0.8,3.6c0,0.3-0.4,1.1-0.6,1.1c-2.7,0.1-5.3,0-8.1,0c-0.4-2.3-0.8-4.5-1.3-6.7
		c-0.4-2-1-4-1.5-6.1c-0.3-1.3-0.4-2.6-0.7-3.9c-0.3-1.2-0.6-2.5-0.9-3.7c-0.2-1-0.5-1.9-0.7-2.9c-0.3-1.3-0.4-2.6-0.7-3.9
		c-0.3-1.3-0.7-2.6-1-4c-0.2-0.9-0.4-1.8-0.6-2.7c-0.2-0.9-0.5-1.8-0.6-2.8c0-0.8,0.2-1.6,0.3-2.3C13.5,29.7,16,29.7,18.6,29.7z"/>
	<path class="st0" d="M7.4,29.7c0.4,1.8,0.9,3.6,1.3,5.5c0.6,2.6,1.2,5.2,1.8,7.9c0.4,1.7,0.7,3.4,1.1,5.1c0.5,2.1,1,4.2,1.5,6.3
		c0.3,1.2,0.4,2.5,0.7,3.7c0.3,1.3,0.7,2.7,1,4c0.3,1.2,0.5,2.5,0.7,3.7c0.1,0.5,0.2,1,0.4,1.6c0.2,0.7,0.1,1.2-0.8,1.2
		c-1.3,0-2.7,0-4,0c-0.8,0-1.1-0.7-1.2-1.3c-0.6-2.6-1.1-5.2-1.7-7.8c-0.3-1.3-0.4-2.6-0.7-3.9c-0.3-1.3-0.7-2.6-1-4
		C6.4,50.8,6.2,49.9,6,49c-0.2-1.2-0.4-2.5-0.7-3.7c-0.3-1.3-0.7-2.7-1-4c-0.2-0.9-0.4-1.9-0.6-2.9C3.5,37.2,3.3,36,3,34.9
		c-0.3-1.2-0.7-2.4-1-3.7C2,31,2.1,30.7,2.2,30.4c0.1-0.2,0.2-0.4,0.3-0.7C4.1,29.7,5.8,29.7,7.4,29.7z"/>
	<path class="st0" d="M242.1,58.3c-2.5,0-4.8,0-7.1,0c-0.9,0-1,0.6-1,1.2c0,2.6,0,5.1,0,7.7c0,1-0.2,1.4-1.3,1.4
		c-2.6-0.1-5.2-0.1-7.8,0c-0.9,0-1.2-0.3-1.1-1.1c0-8.1,0-16.1,0-24.2c0-0.9,0.5-1.3,1.3-1.3c2.5,0,5,0,7.5,0c1.1,0,1.4,0.3,1.4,1.4
		c0,2.5,0,5.1,0,7.6c0,0.9,0.3,1.2,1.1,1.1c2,0,4.1,0,6.1,0c0.8,0,1-0.3,1-1c0-2.5,0-5.1,0-7.6c0-1.2,0.3-1.5,1.5-1.5
		c2.4,0,4.8,0,7.2,0c1.3,0,1.6,0.3,1.6,1.6c0,7.9,0,15.8,0,23.7c0,1.2-0.1,1.3-1.3,1.3c-2.5,0-5.1,0-7.6,0c-1,0-1.3-0.3-1.3-1.4
		c0-2.5,0-4.9,0-7.4C242.2,59.3,242.2,58.8,242.1,58.3z"/>
	<path class="st0" d="M109.5,51.7c0-2.8,0-5.6,0-8.4c0-1,0.5-1.3,1.3-1.3c2.1,0,4.3,0,6.4,0c0.8,0,1.4,0.4,1.4,1.4
		c0,5.1,0,10.3-0.1,15.4c-0.1,1.8-0.4,3.7-1.1,5.4c-0.5,1.1-1.7,1.9-2.7,2.6c-1.7,1.1-3.6,1.8-5.8,1.9c-2.4,0.1-4.8,0.4-7.2,0.4
		c-1.3,0-2.7-0.2-4-0.5c-2.6-0.7-5.2-1.6-6.6-4.1c-0.5-0.8-0.7-1.8-0.9-2.8c-1-6-0.3-12.1-0.6-18.2c0-1,0.6-1.4,1.3-1.4
		c2.6-0.1,5.1,0,7.7,0c1.1,0,1.5,0.5,1.5,1.6c0,3.9,0,7.9,0,11.8c0,1.6,0,3.2,0.2,4.8c0.1,1.5,1.3,2.6,2.8,2.7
		c1.2,0.1,2.5,0.1,3.7,0c1.6-0.1,2.7-1.3,2.7-2.8C109.4,57.2,109.4,54.5,109.5,51.7C109.4,51.7,109.4,51.7,109.5,51.7z"/>
	<path class="st0" d="M210.5,53.3c-0.6-1.6-0.9-2.9-1.6-4c-1-1.7-3.2-2.1-5.2-1.5c-2.5,0.7-3.1,2.4-3.6,4.7
		c-0.5,2.5-0.2,4.9,0.2,7.3c0.2,1.3,2,3.2,3.7,3.1c1.6-0.1,3.4,0.3,4.5-1.2c0.7-0.8,1.1-1.9,1.5-2.9c0.3-0.7,0.7-0.9,1.4-0.9
		c2.3,0.1,4.6,0.3,7,0.4c1.2,0.1,1.7,0.5,1.3,1.6c-0.4,1.3-0.9,2.6-1.7,3.7c-1.2,1.7-2.8,3-4.7,3.8c-3.4,1.5-7.1,1.9-10.7,1.6
		c-3.6-0.4-7.1-1.3-9.7-3.9c-1.8-1.8-2.9-3.9-3.4-6.4c-0.3-1.5-0.6-2.9-0.4-4.4c0.5-3.9,1.8-7.5,5.2-9.8c1.5-1,3.3-1.7,5.1-2.2
		c3.2-0.8,6.3-0.6,9.5-0.4c3.2,0.3,6.3,1.4,8.4,4c1.1,1.3,1.9,2.8,2,4.5c0,0.4,0.1,0.7,0.3,1.1c0.4,0.7,0.1,1-0.5,1.1
		C216.1,52.8,213.2,53.1,210.5,53.3z"/>
	<path class="st0" d="M70.5,68.5c-4.1,0-8,0-11.9,0c-0.4-2.1-0.9-4.2-1.3-6.3c-0.4-1.7-0.7-3.5-1.1-5.2c-0.6-2.6-1.2-5.2-1.7-7.9
		c-0.4-1.8-0.7-3.6-1.1-5.3c-0.5-2.1-1-4.2-1.5-6.3c-0.1-0.4-0.1-0.7-0.1-1.1c-0.1-1.3,0.1-1.4,1.3-1.4c3,0,6,0,9.1,0
		c1.5,0,1.7,0.2,2,1.6c0.3,1.3,0.4,2.6,0.7,3.9c0.3,1.3,0.7,2.7,1,4c0.2,1,0.4,2.1,0.6,3.2c0.2,1.3,0.4,2.6,0.7,3.9
		c0.3,1.3,0.7,2.7,1,4c0.2,0.9,0.4,1.9,0.6,2.9c0.2,1.3,0.4,2.6,0.7,3.9c0.3,1.4,0.7,2.7,1,4.1C70.5,67,70.4,67.7,70.5,68.5z"/>
	<path class="st0" d="M123.2,55.3c0-4,0-8,0-12c0-1.1,0.3-1.4,1.4-1.4c2.5,0,5.1,0,7.6,0c0.9,0,1.3,0.5,1.3,1.4c0,5.8,0,11.7,0,17.5
		c0,1.4,0,1.4,1.4,1.4c2.7,0,5.5,0,8.2,0c1.4,0,1.7,0.3,1.7,1.6c0,1.1,0,2.2,0,3.3c0,0.8-0.3,1.3-1.2,1.3c-6.4,0-12.9,0-19.3,0
		c-0.9,0-1.1-0.4-1.1-1.2C123.2,63.3,123.2,59.3,123.2,55.3z"/>
	<path class="st0" d="M170.1,68.5c-7.2,0-14.1,0-21.1,0c-0.1-0.4-0.2-0.9-0.2-1.3c0-7.9,0-15.8,0-23.7c0-1.3,0.3-1.6,1.7-1.6
		c2.3,0,4.5,0,6.8,0c1.3,0,1.9,0.3,1.9,1.8c-0.1,5.8,0,11.6-0.1,17.4c0,1,0.4,1.2,1.3,1.2c2.8,0,5.6,0,8.4,0c1,0,1.4,0.4,1.4,1.3
		C170.1,65.2,170.1,66.8,170.1,68.5z"/>
	<path class="st0" d="M184.4,55.4c0,4,0,7.9,0,11.9c0,0.9-0.2,1.3-1.2,1.3c-2.6-0.1-5.1,0-7.7,0c-1.2,0-1.4-0.3-1.4-1.4
		c0-7.9,0-15.8,0-23.7c0-1.1,0.4-1.5,1.5-1.5c2.5,0,4.9,0,7.4,0c1.1,0,1.4,0.4,1.4,1.4C184.4,47.4,184.4,51.4,184.4,55.4z"/>
	<path class="st0" d="M76.1,42.2c3.3,0,6.5,0,9.8,0c0.4,0,0.8,0.2,1.1,0.3c-0.1,0.3-0.2,0.7-0.4,1c-1.7,2.7-3.5,5.5-5.2,8.2
		c-1.6,2.5-3.3,4.9-4.9,7.3c-0.9,1.3-1.7,2.6-2.5,3.9c-0.2,0.3-0.4,0.7-0.7,0.8c-0.3,0.1-0.9,0-1-0.2c-0.3-0.6-0.4-1.3-0.6-1.9
		c-0.4-1.6-0.7-3.3-1.1-4.9c-0.2-1.2-0.4-2.3-0.7-3.5c0-0.2,0-0.4-0.1-0.6c-1-2,0.6-3.2,1.5-4.6c0.9-1.4,1.7-2.7,2.6-4.1
		C74.6,43.1,75,42.2,76.1,42.2z"/>
	<path class="st0" d="M52.9,52.7c-0.4,0.7-0.9,1.7-1.5,2.6c-1.1,1.7-2.1,3.3-3.2,5c-0.7,1-1.4,2.1-2.2,3.1c-0.2,0.3-0.7,0.6-0.9,0.5
		c-0.3-0.1-0.7-0.5-0.7-0.9c-0.3-1.2-0.4-2.4-0.7-3.6c-0.3-1.3-0.7-2.6-1-3.9c-0.3-1.2-0.4-2.4-0.7-3.6c-0.5-1.5,0.2-2.5,1-3.7
		c1.5-2,2.8-4.2,4.2-6.3c0.5-0.8,1.1-1.5,1.6-2.2c0.5-0.6,0.9-0.6,1.1,0.2c0.2,0.7,0.4,1.5,0.6,2.2c0.3,1.2,0.6,2.4,0.9,3.6
		c0.2,0.9,0.5,1.8,0.7,2.8C52.3,49.9,52.5,51.1,52.9,52.7z"/>
	<g>
		<path class="st0" d="M5.9,81.4l4-6.5h1.5l4.2,6.5H14l-1.2-2H8.5l-1.1,2H5.9z M8.9,78.8h3.5L11.3,77c-0.3-0.5-0.6-1-0.7-1.3
			c-0.1,0.4-0.3,0.8-0.6,1.2L8.9,78.8z"/>
		<path class="st0" d="M27.1,74.9h1.4v3.8c0,0.7-0.1,1.2-0.4,1.6c-0.2,0.4-0.7,0.7-1.3,0.9s-1.4,0.4-2.4,0.4c-1,0-1.8-0.1-2.4-0.3
			c-0.6-0.2-1.1-0.5-1.3-0.9c-0.3-0.4-0.4-0.9-0.4-1.6v-3.8h1.4v3.8c0,0.6,0.1,1,0.3,1.2c0.2,0.3,0.5,0.5,0.9,0.6
			c0.4,0.1,0.9,0.2,1.5,0.2c1,0,1.7-0.1,2.1-0.4c0.4-0.3,0.6-0.8,0.6-1.7V74.9z"/>
		<path class="st0" d="M34.5,81.4v-6.5H38c0.8,0,1.4,0,1.8,0.1c0.6,0.1,1.1,0.2,1.5,0.5c0.5,0.3,1,0.7,1.2,1.1
			c0.3,0.5,0.4,1,0.4,1.5c0,0.5-0.1,0.9-0.3,1.3c-0.2,0.4-0.4,0.7-0.7,0.9c-0.3,0.3-0.6,0.4-0.9,0.6c-0.3,0.1-0.8,0.3-1.2,0.3
			c-0.5,0.1-1,0.1-1.7,0.1H34.5z M35.8,80.7H38c0.7,0,1.2,0,1.6-0.1c0.4-0.1,0.7-0.2,0.9-0.3c0.3-0.2,0.6-0.5,0.8-0.8
			c0.2-0.3,0.3-0.8,0.3-1.3c0-0.7-0.2-1.2-0.5-1.6c-0.4-0.4-0.8-0.6-1.3-0.7c-0.4-0.1-1-0.1-1.8-0.1h-2.2V80.7z"/>
		<path class="st0" d="M48.8,81.4v-6.5h1.4v6.5H48.8z"/>
		<path class="st0" d="M55.9,78.3c0-1.1,0.5-1.9,1.4-2.5c0.9-0.6,2.1-0.9,3.6-0.9c1,0,1.8,0.1,2.6,0.4c0.8,0.3,1.3,0.7,1.8,1.2
			s0.6,1.1,0.6,1.7c0,0.7-0.2,1.3-0.6,1.8c-0.4,0.5-1,0.9-1.8,1.2c-0.8,0.3-1.6,0.4-2.5,0.4c-1,0-1.8-0.1-2.6-0.4
			c-0.8-0.3-1.3-0.7-1.7-1.2C56.1,79.4,55.9,78.8,55.9,78.3z M57.3,78.3c0,0.8,0.3,1.4,1,1.9c0.7,0.5,1.5,0.7,2.5,0.7
			c1,0,1.9-0.2,2.5-0.7c0.7-0.5,1-1.1,1-1.9c0-0.5-0.1-1-0.4-1.4c-0.3-0.4-0.7-0.7-1.2-0.9c-0.5-0.2-1.2-0.3-1.8-0.3
			c-1,0-1.8,0.2-2.5,0.6S57.3,77.3,57.3,78.3z"/>
		<path class="st0" d="M81.9,81.4l-4-6.5h1.5l2.7,4.7c0.2,0.4,0.4,0.7,0.5,1.1c0.2-0.4,0.3-0.7,0.6-1.1l2.8-4.7h1.4l-4,6.5H81.9z"/>
		<path class="st0" d="M92.5,81.4v-6.5h1.4v6.5H92.5z"/>
		<path class="st0" d="M99.9,81.4v-6.5h3.6c0.8,0,1.4,0,1.8,0.1c0.6,0.1,1.1,0.2,1.5,0.5c0.5,0.3,1,0.7,1.2,1.1
			c0.3,0.5,0.4,1,0.4,1.5c0,0.5-0.1,0.9-0.3,1.3c-0.2,0.4-0.4,0.7-0.7,0.9c-0.3,0.3-0.6,0.4-0.9,0.6s-0.8,0.3-1.2,0.3
			c-0.5,0.1-1,0.1-1.7,0.1H99.9z M101.3,80.7h2.2c0.7,0,1.2,0,1.6-0.1c0.4-0.1,0.7-0.2,0.9-0.3c0.3-0.2,0.6-0.5,0.8-0.8
			c0.2-0.3,0.3-0.8,0.3-1.3c0-0.7-0.2-1.2-0.5-1.6c-0.4-0.4-0.8-0.6-1.3-0.7c-0.4-0.1-1-0.1-1.8-0.1h-2.2V80.7z"/>
		<path class="st0" d="M114.1,81.4v-6.5h7.5v0.8h-6.1v2h5.7v0.8h-5.7v2.2h6.3v0.8H114.1z"/>
		<path class="st0" d="M126.9,78.3c0-1.1,0.5-1.9,1.4-2.5c0.9-0.6,2.1-0.9,3.6-0.9c1,0,1.8,0.1,2.6,0.4c0.8,0.3,1.3,0.7,1.8,1.2
			c0.4,0.5,0.6,1.1,0.6,1.7c0,0.7-0.2,1.3-0.6,1.8c-0.4,0.5-1,0.9-1.8,1.2c-0.8,0.3-1.6,0.4-2.5,0.4c-1,0-1.8-0.1-2.6-0.4
			c-0.8-0.3-1.3-0.7-1.7-1.2C127.1,79.4,126.9,78.8,126.9,78.3z M128.4,78.3c0,0.8,0.3,1.4,1,1.9c0.7,0.5,1.5,0.7,2.5,0.7
			c1,0,1.9-0.2,2.5-0.7c0.7-0.5,1-1.1,1-1.9c0-0.5-0.1-1-0.4-1.4c-0.3-0.4-0.7-0.7-1.2-0.9c-0.5-0.2-1.2-0.3-1.8-0.3
			c-1,0-1.8,0.2-2.5,0.6C128.7,76.6,128.4,77.3,128.4,78.3z"/>
		<path class="st0" d="M150,81.4v-6.5h3.6c0.8,0,1.4,0,1.8,0.1c0.6,0.1,1.1,0.2,1.5,0.5c0.5,0.3,1,0.7,1.2,1.1
			c0.3,0.5,0.4,1,0.4,1.5c0,0.5-0.1,0.9-0.3,1.3c-0.2,0.4-0.4,0.7-0.7,0.9c-0.3,0.3-0.6,0.4-0.9,0.6s-0.8,0.3-1.2,0.3
			c-0.5,0.1-1,0.1-1.7,0.1H150z M151.3,80.7h2.2c0.7,0,1.2,0,1.6-0.1c0.4-0.1,0.7-0.2,0.9-0.3c0.3-0.2,0.6-0.5,0.8-0.8
			c0.2-0.3,0.3-0.8,0.3-1.3c0-0.7-0.2-1.2-0.5-1.6c-0.4-0.4-0.8-0.6-1.3-0.7c-0.4-0.1-1-0.1-1.8-0.1h-2.2V80.7z"/>
		<path class="st0" d="M163.7,78.3c0-1.1,0.5-1.9,1.4-2.5c0.9-0.6,2.1-0.9,3.6-0.9c1,0,1.8,0.1,2.6,0.4c0.8,0.3,1.3,0.7,1.8,1.2
			c0.4,0.5,0.6,1.1,0.6,1.7c0,0.7-0.2,1.3-0.6,1.8c-0.4,0.5-1,0.9-1.8,1.2c-0.8,0.3-1.6,0.4-2.5,0.4c-1,0-1.8-0.1-2.6-0.4
			c-0.8-0.3-1.3-0.7-1.7-1.2S163.7,78.8,163.7,78.3z M165.1,78.3c0,0.8,0.3,1.4,1,1.9c0.7,0.5,1.5,0.7,2.5,0.7c1,0,1.9-0.2,2.5-0.7
			c0.7-0.5,1-1.1,1-1.9c0-0.5-0.1-1-0.4-1.4c-0.3-0.4-0.7-0.7-1.2-0.9c-0.5-0.2-1.2-0.3-1.8-0.3c-1,0-1.8,0.2-2.5,0.6
			C165.4,76.6,165.1,77.3,165.1,78.3z"/>
		<path class="st0" d="M179,81.4v-6.5h2.1l2.4,4.6c0.2,0.4,0.4,0.8,0.5,1c0.1-0.2,0.3-0.6,0.5-1l2.5-4.5h1.8v6.5h-1.3V76l-3,5.4
			h-1.2l-3-5.5v5.5H179z"/>
		<path class="st0" d="M194.3,78.3c0-1.1,0.5-1.9,1.4-2.5c0.9-0.6,2.1-0.9,3.6-0.9c1,0,1.8,0.1,2.6,0.4c0.8,0.3,1.3,0.7,1.8,1.2
			c0.4,0.5,0.6,1.1,0.6,1.7c0,0.7-0.2,1.3-0.6,1.8c-0.4,0.5-1,0.9-1.8,1.2c-0.8,0.3-1.6,0.4-2.5,0.4c-1,0-1.8-0.1-2.6-0.4
			c-0.8-0.3-1.3-0.7-1.7-1.2S194.3,78.8,194.3,78.3z M195.7,78.3c0,0.8,0.3,1.4,1,1.9c0.7,0.5,1.5,0.7,2.5,0.7c1,0,1.9-0.2,2.5-0.7
			c0.7-0.5,1-1.1,1-1.9c0-0.5-0.1-1-0.4-1.4c-0.3-0.4-0.7-0.7-1.2-0.9c-0.5-0.2-1.2-0.3-1.8-0.3c-1,0-1.8,0.2-2.5,0.6
			C196.1,76.6,195.7,77.3,195.7,78.3z"/>
		<path class="st0" d="M212.3,81.4v-5.7h-3.4v-0.8h8.2v0.8h-3.4v5.7H212.3z"/>
		<path class="st0" d="M222.4,81.4v-6.5h1.4v6.5H222.4z"/>
		<path class="st0" d="M237.2,79.2l1.4,0.2c-0.3,0.7-0.8,1.2-1.5,1.6c-0.7,0.4-1.7,0.6-2.7,0.6c-1.1,0-2-0.1-2.7-0.4
			c-0.7-0.3-1.2-0.7-1.6-1.2c-0.4-0.5-0.5-1.1-0.5-1.7c0-0.7,0.2-1.3,0.6-1.8s1-0.9,1.8-1.1c0.8-0.3,1.6-0.4,2.5-0.4
			c1,0,1.9,0.2,2.6,0.5c0.7,0.3,1.2,0.8,1.5,1.4l-1.3,0.2c-0.2-0.5-0.6-0.8-1-1c-0.5-0.2-1-0.3-1.7-0.3c-0.8,0-1.5,0.1-2,0.4
			c-0.5,0.2-0.9,0.6-1.1,1c-0.2,0.4-0.3,0.8-0.3,1.2c0,0.6,0.1,1,0.4,1.4c0.3,0.4,0.7,0.7,1.2,0.9c0.5,0.2,1.1,0.3,1.8,0.3
			c0.8,0,1.4-0.1,1.9-0.4C236.7,80.1,237.1,79.7,237.2,79.2z"/>
		<path class="st0" d="M242.8,81.4l4-6.5h1.5l4.2,6.5H251l-1.2-2h-4.3l-1.1,2H242.8z M245.8,78.8h3.5l-1.1-1.8
			c-0.3-0.5-0.6-1-0.7-1.3c-0.1,0.4-0.3,0.8-0.6,1.2L245.8,78.8z"/>
	</g>
</g>
</svg>
